<svg width="221" height="201" viewBox="0 0 221 201" fill="none" xmlns="http://www.w3.org/2000/svg">
<g clip-path="url(#clip0_2370_65813)">
<g clip-path="url(#clip1_2370_65813)">
<path d="M201.75 198.882C201.75 198.942 160.84 199.002 110.38 199.002C59.92 199.002 19 198.952 19 198.882C19 198.812 59.9 198.762 110.4 198.762C160.9 198.762 201.75 198.812 201.75 198.882Z" fill="#263238"/>
<path d="M174.52 44.791H41.99V144.371H174.52V44.791Z" fill="white"/>
<path d="M174.51 144.371V142.541C174.51 141.341 174.51 139.571 174.49 137.251C174.49 132.621 174.46 125.811 174.44 117.121C174.42 99.7713 174.38 74.9013 174.34 44.8013L174.53 44.9913L42.02 45.0312L42.25 44.8013V144.381L42.04 144.171L137.69 144.271L164.86 144.331L172.07 144.361H174.4H172.1L164.93 144.391L137.81 144.451L42.02 144.551H41.77V144.341C41.77 114.471 41.77 80.5612 41.75 44.7612V44.5312H41.99L174.5 44.5713H174.7V44.7612C174.66 74.9312 174.63 99.8413 174.6 117.221C174.58 125.891 174.56 132.681 174.55 137.301V143.891C174.55 144.181 174.5 144.381 174.5 144.381L174.51 144.371Z" fill="#263238"/>
<path d="M173.85 56.9812C173.74 56.9912 173.63 57.0012 173.52 57.0012H172.53L168.75 57.0412C165.47 57.0712 160.72 57.0812 154.85 57.0812C143.11 57.0812 126.9 57.0012 108.99 56.8512L63.1299 56.4812L49.2299 56.3712L45.4499 56.3312L44.4599 56.3012C44.3499 56.3112 44.2399 56.3112 44.1299 56.3012C44.2399 56.2812 44.3499 56.2712 44.4599 56.2812H45.4499L49.2299 56.2412C52.5099 56.2112 57.2599 56.2012 63.1299 56.2012C74.8699 56.2012 91.0799 56.2912 109 56.4412L154.86 56.8112L168.76 56.9212L172.54 56.9712H173.53C173.64 56.9712 173.75 56.9712 173.86 57.0012L173.85 56.9812Z" fill="#263238"/>
<path d="M50.64 49.8315C50.64 50.6915 49.95 51.3915 49.08 51.4015C48.22 51.4015 47.52 50.7115 47.51 49.8415C47.51 48.9815 48.2 48.2815 49.07 48.2715C49.93 48.2715 50.62 48.9715 50.63 49.8315H50.64Z" fill="#263238"/>
<path d="M56.89 49.8315C56.89 50.6915 56.2 51.3915 55.33 51.4015C54.47 51.4015 53.77 50.7115 53.76 49.8415C53.76 48.9815 54.45 48.2815 55.32 48.2715C56.18 48.2715 56.88 48.9715 56.88 49.8315H56.89Z" fill="#263238"/>
<path d="M61.57 51.411C62.4316 51.411 63.13 50.7126 63.13 49.851C63.13 48.9894 62.4316 48.291 61.57 48.291C60.7084 48.291 60.01 48.9894 60.01 49.851C60.01 50.7126 60.7084 51.411 61.57 51.411Z" fill="#263238"/>
<path d="M92.3201 114.791H65.0901V135.181H92.3201V114.791Z" fill="#EBEBEB"/>
<path d="M122.22 114.791H94.99V135.181H122.22V114.791Z" fill="#EBEBEB"/>
<path d="M157.08 114.791H129.85V135.181H157.08V114.791Z" fill="#EBEBEB"/>
<path d="M203.91 66.1996C203.08 50.8296 187.02 43.0996 178.8 42.0996L172.22 49.8196C177.51 49.0296 190.68 56.3696 191.32 61.6896C191.96 67.0096 187.91 73.7996 182.58 74.2896C178.39 74.6796 171.41 70.9596 168.75 74.2096C162.03 68.2296 150.56 68.7196 144.38 75.2596C135.65 72.1396 126.04 76.6796 122.91 85.4096C122.47 86.6396 122.18 87.9096 122.03 89.2096L146.77 103.57C146.77 103.57 157.08 112.81 164.11 107.12C166.51 105.18 167.42 102.39 167.66 99.6896C168.13 99.7496 168.6 99.7196 169.06 99.5996C170.83 99.1196 172.17 97.5196 172.75 95.7696C172.83 95.5396 172.88 95.3296 172.94 95.0796C178.95 96.4096 187.14 94.8996 191.97 91.8896C198.98 87.5396 204.35 74.4696 203.91 66.1996Z" fill="#F5F5F5"/>
<path d="M170.5 77.2113C170.5 77.2113 170.46 77.1713 170.41 77.0913L170.17 76.7313C170.06 76.5713 169.93 76.3713 169.76 76.1413C169.59 75.9113 169.4 75.6513 169.16 75.3813C167.83 73.7913 166.19 72.4813 164.35 71.5113C163.09 70.8413 161.75 70.3513 160.36 70.0613C158.76 69.7113 157.11 69.6313 155.48 69.8413C151.72 70.3113 148.26 72.1113 145.72 74.9113C145.35 75.3113 145.03 75.7413 144.72 76.1413L144.66 76.2213L144.58 76.1813C140.61 74.2413 135.99 74.0813 131.89 75.7413C131.2 76.0413 130.53 76.3713 129.88 76.7513C128.71 77.4113 127.62 78.2213 126.65 79.1513C125.23 80.4913 124.13 82.1213 123.42 83.9413C123.29 84.2613 123.2 84.5513 123.12 84.8013C123.05 85.0113 122.99 85.2313 122.94 85.4413L122.83 85.8413C122.83 85.8413 122.81 85.9313 122.79 85.9713C122.79 85.9713 122.79 85.9213 122.81 85.8313L122.89 85.4313C122.93 85.2113 122.99 84.9913 123.05 84.7813C123.12 84.5213 123.21 84.2313 123.33 83.8913C124.01 82.0413 125.11 80.3713 126.53 79.0113C127.51 78.0613 128.6 77.2413 129.78 76.5713C130.43 76.1913 131.11 75.8413 131.81 75.5413C132.56 75.2313 133.33 74.9813 134.11 74.7913C137.66 73.9313 141.39 74.3413 144.67 75.9413L144.52 75.9813C147.12 72.4313 151.07 70.1213 155.44 69.6013C157.09 69.4013 158.76 69.4813 160.38 69.8413C161.79 70.1513 163.15 70.6513 164.43 71.3413C166.28 72.3213 167.91 73.6713 169.23 75.2913C169.44 75.5413 169.64 75.8013 169.82 76.0713C169.96 76.2613 170.1 76.4613 170.22 76.6713C170.31 76.8313 170.39 76.9513 170.45 77.0513C170.47 77.1113 170.49 77.1613 170.5 77.2213V77.2113Z" fill="#263238"/>
<path d="M175.28 73.9998C175.28 73.9998 174.93 73.7998 174.35 73.5798C174.01 73.4598 173.65 73.3698 173.29 73.3198C172.85 73.2698 172.4 73.2698 171.96 73.3198C171.52 73.3898 171.09 73.5098 170.67 73.6698C170.33 73.8098 170.02 73.9898 169.72 74.1998C169.21 74.5698 168.97 74.8798 168.94 74.8498C168.91 74.8198 168.98 74.7598 169.09 74.6098C169.25 74.4098 169.43 74.2298 169.63 74.0698C169.92 73.8298 170.25 73.6298 170.59 73.4698C171.45 73.0798 172.39 72.9498 173.32 73.0898C173.7 73.1498 174.06 73.2498 174.41 73.4098C174.65 73.5098 174.87 73.6398 175.07 73.7898C175.21 73.9098 175.28 73.9698 175.27 73.9798L175.28 73.9998Z" fill="#263238"/>
<path d="M182.25 83.3404C182.25 83.3404 182 83.2204 181.52 83.0504C180.84 82.8104 180.13 82.7104 179.41 82.7504C178.33 82.8004 177.3 83.2004 176.47 83.8904C175.44 84.7404 174.77 85.9604 174.6 87.2904L174.58 87.4804L174.43 87.3804C173.92 87.0504 173.37 86.7904 172.8 86.5804C171.33 86.0604 169.74 85.9604 168.22 86.2904C166.98 86.5804 165.82 87.1604 164.84 87.9804C164.18 88.5304 163.61 89.1804 163.14 89.9004C162.81 90.4104 162.67 90.7304 162.65 90.7104C162.67 90.6304 162.7 90.5504 162.74 90.4804C162.83 90.2604 162.94 90.0504 163.06 89.8504C164.19 87.9604 166.03 86.6004 168.17 86.0804C170.36 85.5704 172.66 85.9704 174.55 87.1804L174.37 87.2604C174.54 85.8704 175.25 84.5904 176.34 83.7104C177.21 83.0104 178.29 82.6104 179.4 82.5804C180.13 82.5504 180.86 82.6804 181.54 82.9504C181.72 83.0204 181.9 83.1104 182.07 83.2104C182.13 83.2404 182.19 83.2904 182.24 83.3304L182.25 83.3404Z" fill="#263238"/>
<path d="M201.43 57.2207C201.5 57.3207 201.56 57.4207 201.61 57.5307C201.72 57.7407 201.89 58.0407 202.08 58.4507C202.6 59.6007 203.02 60.8007 203.32 62.0207C203.76 63.8407 203.99 65.7007 203.99 67.5707C203.99 68.6807 203.94 69.7807 203.82 70.8807C203.7 72.0607 203.51 73.2307 203.25 74.3907C202.37 78.4707 200.8 82.3707 198.61 85.9307C197.95 87.0107 197.19 88.0207 196.35 88.9607C196.04 89.2807 195.8 89.5307 195.62 89.6907C195.54 89.7807 195.44 89.8507 195.34 89.9207C195.41 89.8307 195.5 89.7407 195.58 89.6507C195.75 89.4907 195.97 89.2307 196.27 88.9007C197.08 87.9407 197.82 86.9207 198.46 85.8507C200.6 82.3007 202.14 78.4107 203.01 74.3607C203.26 73.2107 203.45 72.0407 203.58 70.8707C203.7 69.7807 203.77 68.6807 203.76 67.5807C203.76 65.7207 203.56 63.8707 203.14 62.0507C202.85 60.8407 202.46 59.6507 201.97 58.5007C201.8 58.0907 201.64 57.7907 201.53 57.5707C201.48 57.4607 201.44 57.3407 201.41 57.2207H201.43Z" fill="#263238"/>
<path d="M189.16 57.8105C189.32 57.9405 189.46 58.0905 189.57 58.2505C189.92 58.6605 190.22 59.1105 190.49 59.5805C192.31 62.7605 192.18 66.7005 190.16 69.7605C189.87 70.2105 189.53 70.6305 189.16 71.0205C189.03 71.1705 188.88 71.3005 188.72 71.4205C189.19 70.8605 189.62 70.2805 190.02 69.6705C191.92 66.6305 192.04 62.8105 190.34 59.6605C189.99 59.0205 189.59 58.4005 189.16 57.8105Z" fill="#263238"/>
<path d="M172.89 45.9098C174.03 47.6498 175.5 49.1398 177.22 50.3098C177.87 50.7398 178.74 50.5698 179.17 49.9198C179.42 49.5498 179.47 49.0898 179.33 48.6698V48.6298C181.35 50.1698 183.46 51.5798 185.66 52.8498C186.48 53.3298 187.54 53.0598 188.03 52.2298C188.29 51.7798 188.34 51.2398 188.16 50.7498C185.95 44.7098 181.64 39.6798 176 36.5898L172.89 45.8998V45.9098Z" fill="#FEBE24"/>
<g opacity="0.3">
<path d="M175.45 46.1211C175.63 46.4311 175.86 46.7011 176.15 46.9111C176.44 47.1311 176.83 47.1511 177.14 46.9711C177.58 46.6711 177.56 45.9511 178.03 45.6711C178.5 45.3911 179.1 45.7911 179.51 46.1811L180.8 47.4111C181.12 47.7111 181.54 48.0411 181.94 47.8511C182.34 47.6611 182.41 47.0411 182.32 46.5711C181.84 44.3411 180.29 42.4911 178.19 41.6211L175.46 46.1111L175.45 46.1211Z" fill="black"/>
</g>
<path d="M192.53 56.6908C192.56 57.5408 193.28 58.2108 194.13 58.1808C194.98 58.1508 195.65 57.4308 195.62 56.5808C195.59 55.7308 194.87 55.0608 194.02 55.0908C193.21 55.1208 192.56 55.7708 192.53 56.5808" fill="#FEBE24"/>
<path d="M110.95 3.15064C109.7 5.10064 112.44 11.9006 118.71 20.6206C122.4 25.7606 126.9 30.2906 132.02 34.0106L168.2 57.2206L174.31 47.6906L177.86 42.1606L183.97 32.6306L151.14 11.5706C147.93 9.51064 144.53 7.76064 140.98 6.34064C137.44 4.91064 133.78 3.76064 130.06 2.92064C119.61 0.63064 112.19 1.20064 110.95 3.15064Z" fill="#F5F5F5"/>
<path d="M161.29 18.09L161.42 18.05C169.21 15.44 177.76 16.5 184.67 20.94L189 23.72L177.49 28.49L161.28 18.09H161.29Z" fill="#FEBE24"/>
<path d="M161.29 18.0905L161.37 18.1405L161.61 18.2905L162.5 18.8605L165.88 20.9905L177.54 28.4305H177.48L187.96 24.1005L188.98 23.6605V23.7905L186.43 22.1505C185.59 21.6205 184.77 21.0705 183.94 20.5805C182.36 19.6305 180.68 18.8405 178.94 18.2305C177.37 17.6705 175.74 17.2705 174.09 17.0205C173.32 16.8805 172.56 16.8405 171.84 16.7605C171.12 16.6805 170.42 16.6805 169.75 16.7105C167.66 16.7205 165.57 16.9805 163.54 17.4805C162.81 17.6405 162.27 17.8305 161.89 17.9205L161.32 18.0805L161.46 18.0305L161.85 17.8805C162.22 17.7705 162.76 17.5605 163.49 17.4005C165.53 16.8805 167.62 16.6005 169.73 16.5805C170.4 16.5505 171.1 16.5805 171.82 16.6205C172.54 16.6605 173.3 16.7405 174.08 16.8705C175.74 17.1105 177.38 17.5105 178.96 18.0705C180.71 18.6805 182.4 19.4705 184 20.4305C184.84 20.9205 185.65 21.4605 186.49 22.0005L189.05 23.6505L189.17 23.7305L189.03 23.7905L188.01 24.2305L177.52 28.5705H177.45L165.78 21.0305L162.45 18.8705L161.56 18.3005C161.47 18.2405 161.39 18.1905 161.34 18.1505L161.28 18.0805L161.29 18.0905Z" fill="#263238"/>
<path d="M145.51 42.6797V42.8197C146.37 50.8697 150.84 58.0997 157.66 62.4697L161.94 65.2197L161.5 52.9397L145.51 42.6797Z" fill="#FEBE24"/>
<path d="M145.51 42.6797L145.58 42.7197L145.8 42.8597L146.69 43.4097L149.99 45.5097L161.55 52.8797L161.58 52.8997V52.9297C161.71 56.3797 161.85 60.1597 162 64.1197C162 64.4897 162.03 64.8697 162.04 65.2097V65.3597L161.92 65.2797L159.4 63.6597C158.57 63.1197 157.75 62.6197 156.97 62.0697C155.46 61.0297 154.06 59.8397 152.79 58.5197C151.64 57.3297 150.61 56.0297 149.72 54.6397C149.28 53.9997 148.93 53.3397 148.56 52.7097C148.19 52.0797 147.91 51.4597 147.67 50.8497C146.82 48.9597 146.2 46.9797 145.82 44.9397C145.67 44.2197 145.63 43.6497 145.58 43.2697C145.56 43.0797 145.54 42.9397 145.53 42.8297C145.52 42.7197 145.53 42.6797 145.53 42.6797C145.53 42.7597 145.57 42.9197 145.62 43.2597C145.67 43.5997 145.74 44.2097 145.89 44.9197C146.28 46.9497 146.91 48.9297 147.76 50.8197C148.01 51.4297 148.35 52.0297 148.65 52.6697C148.95 53.3097 149.37 53.9397 149.81 54.5797C150.71 55.9597 151.74 57.2497 152.88 58.4297C154.15 59.7397 155.54 60.9197 157.05 61.9497C157.83 62.4897 158.66 62.9997 159.48 63.5297L162 65.1497L161.88 65.2197C161.88 64.8797 161.86 64.5097 161.84 64.1397C161.7 60.1797 161.56 56.3897 161.44 52.9497L161.47 53.0097L150 45.6097L146.7 43.4697L145.81 42.8997L145.58 42.7497L145.52 42.6897L145.51 42.6797Z" fill="#263238"/>
<path d="M110.95 3.15131C109.93 4.62131 111.39 9.07131 115 15.0213L124.73 1.90131C117.73 1.04131 112.26 1.26131 110.95 3.15131Z" fill="#FEBE24"/>
<path d="M177.92 29.1113C177.92 29.1113 174.52 34.6313 170.25 41.3713C165.98 48.1113 162.49 53.5713 162.45 53.5513C162.41 53.5313 165.84 48.0613 170.12 41.3013C174.4 34.5413 177.88 29.1013 177.92 29.1213V29.1113Z" fill="#263238"/>
<path d="M178.95 29.9297C178.95 29.9297 175.55 35.4397 171.28 42.1797C167.01 48.9197 163.52 54.3797 163.48 54.3597C163.44 54.3397 166.88 48.8497 171.15 42.1097C175.42 35.3697 178.91 29.9097 178.95 29.9297Z" fill="#263238"/>
<path d="M180.12 30.6504C180.12 30.6504 176.72 36.1704 172.45 42.9104C168.18 49.6504 164.69 55.1104 164.65 55.0904C164.61 55.0704 168.05 49.5804 172.32 42.8404C176.59 36.1004 180.08 30.6404 180.12 30.6604V30.6504Z" fill="#263238"/>
<path d="M181.29 31.3711C181.29 31.3711 177.89 36.8911 173.62 43.6311C169.35 50.3711 165.84 55.8311 165.84 55.8111C165.84 55.7911 169.24 50.3011 173.51 43.5611C177.78 36.8211 181.25 31.3611 181.29 31.3811V31.3711Z" fill="#263238"/>
<path d="M182.46 32.0801C182.46 32.0801 179.06 37.5901 174.79 44.3401C170.52 51.0901 167.03 56.5401 166.99 56.5201C166.95 56.5001 170.39 51.0101 174.66 44.2701C178.93 37.5301 182.42 32.0901 182.46 32.0901V32.0801Z" fill="#263238"/>
<path d="M153.46 30.3596C153.46 30.3596 153.53 30.3596 153.65 30.4396C153.77 30.5196 153.94 30.5996 154.16 30.7196C154.6 30.9796 155.22 31.3596 155.98 31.8496C157.51 32.8096 159.61 34.1696 161.92 35.6796C164.23 37.1896 166.31 38.5696 167.81 39.5796L169.58 40.7796L170.05 41.1096C170.11 41.1396 170.16 41.1896 170.21 41.2296C170.15 41.1996 170.09 41.1696 170.03 41.1296L169.54 40.8196L167.74 39.6596L161.84 35.7996L155.93 31.9296L154.16 30.7696C153.95 30.6396 153.78 30.5196 153.67 30.4596L153.46 30.3496V30.3596Z" fill="#263238"/>
<path d="M161.29 18.0899C161.29 18.0899 157.86 23.5999 153.54 30.3299C149.22 37.0599 145.7 42.5099 145.66 42.4899C145.62 42.4699 149.09 36.9899 153.41 30.2499C157.72 23.5099 161.25 18.0699 161.29 18.0899Z" fill="#263238"/>
<path d="M166.65 36.0413C166.63 35.9713 166.63 35.8913 166.65 35.8213C166.68 35.6213 166.78 35.4313 166.93 35.2913C167.16 35.0713 167.49 34.9913 167.79 35.0713C168.3 35.1913 168.61 35.7013 168.49 36.2013C168.42 36.4913 168.22 36.7213 167.96 36.8413C167.68 36.9813 167.34 36.9613 167.07 36.7913C166.9 36.6913 166.76 36.5313 166.69 36.3513C166.65 36.2213 166.65 36.1313 166.66 36.1313C166.67 36.1313 166.68 36.2113 166.74 36.3313C166.82 36.5013 166.95 36.6313 167.12 36.7213C167.36 36.8613 167.65 36.8613 167.89 36.7213C168.29 36.5213 168.46 36.0413 168.26 35.6413C168.16 35.4313 167.97 35.2813 167.75 35.2213C167.49 35.1413 167.21 35.2013 167 35.3813C166.86 35.4913 166.75 35.6513 166.7 35.8213C166.66 35.9613 166.66 36.0313 166.65 36.0313V36.0413Z" fill="#263238"/>
<path d="M159.74 31.4202C159.74 31.4202 159.71 31.3402 159.74 31.2002C159.77 31.0002 159.87 30.8102 160.02 30.6702C160.25 30.4502 160.58 30.3702 160.88 30.4502C161.39 30.5702 161.7 31.0802 161.58 31.5802C161.51 31.8702 161.31 32.1002 161.05 32.2202C160.77 32.3602 160.43 32.3402 160.16 32.1702C159.99 32.0702 159.86 31.9102 159.78 31.7302C159.75 31.6602 159.74 31.5902 159.75 31.5102C159.75 31.5102 159.78 31.5902 159.84 31.7102C159.92 31.8802 160.05 32.0102 160.22 32.1002C160.46 32.2402 160.75 32.2402 160.98 32.1002C161.38 31.9002 161.55 31.4202 161.35 31.0202C161.25 30.8102 161.06 30.6602 160.84 30.6002C160.58 30.5202 160.29 30.5802 160.09 30.7602C159.95 30.8802 159.85 31.0302 159.79 31.2002C159.75 31.3402 159.75 31.4102 159.73 31.4102L159.74 31.4202Z" fill="#263238"/>
<path d="M146.44 28.2112C146.42 28.1412 146.42 28.0612 146.44 27.9912C146.47 27.7912 146.57 27.6012 146.72 27.4612C146.95 27.2312 147.29 27.1512 147.61 27.2412C148.12 27.3612 148.43 27.8712 148.3 28.3712C148.23 28.6512 148.03 28.8912 147.77 29.0112C147.49 29.1512 147.15 29.1312 146.88 28.9612C146.71 28.8612 146.58 28.7012 146.5 28.5212C146.45 28.3812 146.46 28.3012 146.47 28.3012C146.5 28.3612 146.53 28.4312 146.55 28.5012C146.64 28.6612 146.77 28.8012 146.93 28.8912C147.17 29.0212 147.46 29.0212 147.7 28.8912C147.99 28.7312 148.16 28.4212 148.14 28.0912C148.09 27.7612 147.86 27.4912 147.55 27.3912C147.29 27.3112 147.01 27.3712 146.8 27.5512C146.66 27.6612 146.55 27.8212 146.5 27.9912C146.45 28.1312 146.45 28.2012 146.43 28.2012L146.44 28.2112Z" fill="#263238"/>
<path d="M140.51 26.7598C140.51 26.7598 143.07 28.1298 146.18 29.8698C149.29 31.6098 151.78 33.0898 151.75 33.1198C151.72 33.1498 149.19 31.7498 146.08 30.0098C142.97 28.2698 140.48 26.8098 140.51 26.7598Z" fill="#263238"/>
<g opacity="0.3">
<path d="M161.09 52.6697C161.09 52.6697 150.75 45.6997 145.52 42.6797C147.33 45.2697 149.41 48.1997 151.91 50.1197C154.55 52.0797 157.82 52.9897 161.09 52.6697Z" fill="black"/>
</g>
<path d="M135.88 28.1504C140.713 28.1504 144.63 24.2329 144.63 19.4004C144.63 14.5679 140.713 10.6504 135.88 10.6504C131.048 10.6504 127.13 14.5679 127.13 19.4004C127.13 24.2329 131.048 28.1504 135.88 28.1504Z" fill="white"/>
<path d="M144.63 19.9111C144.63 19.9111 144.63 19.8211 144.63 19.7711V19.3511C144.63 19.1211 144.63 18.9011 144.59 18.6811C144.57 18.3711 144.52 18.0711 144.46 17.7711C144.3 16.9511 144.01 16.1511 143.62 15.4111C143.1 14.4311 142.4 13.5511 141.55 12.8311C139.31 10.9211 136.26 10.2911 133.44 11.1411C132.64 11.3711 131.88 11.7311 131.19 12.1911C130.83 12.4311 130.49 12.6911 130.17 12.9711C129.86 13.2711 129.56 13.5911 129.28 13.9211C126.87 16.8311 126.63 20.9611 128.7 24.1311C128.93 24.4911 129.19 24.8411 129.46 25.1711C129.75 25.4911 130.06 25.7811 130.39 26.0611C131.02 26.6011 131.74 27.0411 132.51 27.3611C133.93 27.9711 135.48 28.1911 137 28.0011C139.47 27.6811 141.68 26.3311 143.08 24.2711C143.56 23.5811 143.93 22.8211 144.18 22.0211C144.28 21.7311 144.36 21.4311 144.42 21.1311C144.48 20.9111 144.51 20.6911 144.54 20.4611C144.56 20.2911 144.58 20.1511 144.6 20.0511C144.6 20.0011 144.61 19.9611 144.63 19.9111C144.63 19.9611 144.63 20.0011 144.63 20.0511C144.63 20.1611 144.61 20.2911 144.59 20.4611C144.58 20.6911 144.55 20.9111 144.5 21.1311C144.45 21.4311 144.37 21.7311 144.28 22.0211C144.05 22.8411 143.69 23.6211 143.22 24.3311C141.81 26.4411 139.57 27.8411 137.06 28.1811C135.49 28.3811 133.89 28.1711 132.44 27.5511C131.65 27.2211 130.92 26.7711 130.27 26.2211C129.57 25.6611 128.98 24.9911 128.5 24.2411C127.99 23.4711 127.61 22.6211 127.37 21.7311C127.13 20.8111 127.03 19.8611 127.07 18.9111C127.18 17.0311 127.89 15.2311 129.09 13.7811C129.37 13.4311 129.68 13.1111 130.02 12.8011C130.35 12.5111 130.7 12.2511 131.07 12.0111C131.78 11.5411 132.56 11.1811 133.38 10.9411C134.9 10.4911 136.51 10.4511 138.04 10.8311C140.5 11.4511 142.57 13.1011 143.73 15.3511C144.13 16.1011 144.4 16.9211 144.56 17.7511C144.62 18.0511 144.66 18.3611 144.68 18.6711C144.71 18.9011 144.71 19.1211 144.7 19.3511V19.7711C144.7 19.7711 144.67 19.8711 144.65 19.9111H144.63Z" fill="#263238"/>
<path d="M110.95 3.15044C110.95 3.15044 110.99 3.09044 111.01 3.07044C111.07 2.98044 111.13 2.91044 111.21 2.84044C111.51 2.57044 111.86 2.36044 112.23 2.21044C113.69 1.69044 115.23 1.43044 116.78 1.42044C119.24 1.34044 121.7 1.48044 124.14 1.81044C127.39 2.24044 130.61 2.89044 133.76 3.78044C135.52 4.28044 137.34 4.87044 139.22 5.55044C141.18 6.26044 143.11 7.08044 144.99 7.99044C147.01 8.97044 148.97 10.0704 150.86 11.2604L156.89 15.1204L184.02 32.5204L184.12 32.5804L184.06 32.6804C181.53 36.6204 178.87 40.7604 176.18 44.9704C173.48 49.1904 170.82 53.3204 168.29 57.2604L168.23 57.3604L168.13 57.3004L140.99 39.8904L134.97 36.0204L132.11 34.1704C131.17 33.5404 130.31 32.8404 129.45 32.1704C126.37 29.6204 123.53 26.7804 120.98 23.6904C118.92 21.1304 117.03 18.4504 115.32 15.6504C114.01 13.5704 112.86 11.3904 111.88 9.13044C111.23 7.73044 110.81 6.23044 110.63 4.69044C110.6 4.29044 110.64 3.89044 110.76 3.50044C110.79 3.40044 110.83 3.31044 110.89 3.22044C110.9 3.19044 110.92 3.16044 110.94 3.13044C110.87 3.25044 110.82 3.37044 110.78 3.50044C110.67 3.88044 110.64 4.28044 110.67 4.68044C110.86 6.22044 111.29 7.72044 111.95 9.12044C112.94 11.3704 114.1 13.5304 115.42 15.6104C117.14 18.3904 119.04 21.0604 121.1 23.6004C123.65 26.6704 126.49 29.4904 129.57 32.0304C130.4 32.7104 131.27 33.4004 132.2 34.0104L135.08 35.8504L141.1 39.7104L168.25 57.1004L168.09 57.1404L175.98 44.8504L183.86 32.5604L183.9 32.7204L156.78 15.3004L150.76 11.4404C148.87 10.2404 146.92 9.15044 144.91 8.16044C142.97 7.21044 141.05 6.42044 139.17 5.72044C137.29 5.02044 135.48 4.42044 133.73 3.92044C130.58 3.03044 127.38 2.36044 124.14 1.92044C121.71 1.57044 119.26 1.42044 116.8 1.48044C115.26 1.48044 113.72 1.74044 112.26 2.23044C111.89 2.37044 111.54 2.57044 111.24 2.83044C111.14 2.93044 111.05 3.03044 110.96 3.14044L110.95 3.15044Z" fill="#263238"/>
<path d="M146.78 103.591H69.7199C64.6899 103.591 60.6099 99.5111 60.6099 94.4811C60.6099 89.4511 64.6899 85.3711 69.7199 85.3711H146.78C151.81 85.3711 155.89 89.4511 155.89 94.4811C155.89 99.5111 151.81 103.591 146.78 103.591Z" fill="white"/>
<path d="M146.78 103.591L147.32 103.551C147.54 103.551 147.77 103.521 147.99 103.481C148.3 103.441 148.6 103.381 148.9 103.311L149.44 103.171C149.63 103.111 149.82 103.031 150.02 102.961L150.33 102.841L150.65 102.681C150.87 102.581 151.09 102.471 151.3 102.341C152.32 101.751 153.22 100.961 153.94 100.021C154.15 99.7509 154.35 99.4709 154.52 99.1709C154.71 98.8609 154.88 98.5509 155.02 98.2209C155.18 97.8809 155.31 97.5209 155.43 97.1609C155.48 96.9709 155.53 96.7909 155.58 96.5909L155.66 96.3009L155.7 96.0009L155.79 95.3909L155.82 94.7709V94.1309C155.82 93.9109 155.82 93.6909 155.78 93.4809C155.67 92.5809 155.43 91.6909 155.07 90.8509C154.25 89.0009 152.83 87.4609 151.05 86.5009C150.08 85.9809 149.03 85.6509 147.94 85.5109C146.82 85.3909 145.65 85.4509 144.45 85.4309L69.74 85.4709C68.84 85.4809 67.94 85.6209 67.08 85.8609C66.23 86.1409 65.42 86.5209 64.68 87.0209C63.95 87.5209 63.3 88.1209 62.74 88.7909C62.19 89.4809 61.74 90.2409 61.41 91.0609C61.09 91.8709 60.88 92.7309 60.79 93.6009C60.72 94.4609 60.76 95.3309 60.92 96.1909C61.25 97.8809 62.07 99.4409 63.27 100.681C64.44 101.901 65.94 102.771 67.59 103.171C67.99 103.271 68.4 103.341 68.81 103.391C69.23 103.391 69.64 103.451 70.06 103.441H82.26L115.85 103.471L138.48 103.511L144.64 103.531H146.79H138.48L115.85 103.571L82.26 103.591H70.06C69.64 103.591 69.21 103.561 68.79 103.541C68.37 103.491 67.95 103.421 67.53 103.311C65.84 102.901 64.3 102.021 63.09 100.761C62.48 100.131 61.97 99.4109 61.55 98.6409C61.14 97.8609 60.84 97.0209 60.66 96.1609C60.5 95.2809 60.45 94.3909 60.53 93.5009C60.7 91.7009 61.39 89.9809 62.53 88.5709C63.68 87.1409 65.24 86.0809 66.99 85.5409C67.87 85.2809 68.79 85.1409 69.71 85.1309L144.42 85.1609C145.61 85.1609 146.78 85.1209 147.93 85.2509C149.04 85.3909 150.12 85.7309 151.1 86.2609C152.91 87.2509 154.34 88.8109 155.17 90.7009C155.53 91.5509 155.77 92.4509 155.88 93.3609C155.9 93.5809 155.9 93.8009 155.92 94.0209V94.6609C155.92 94.8709 155.9 95.1009 155.89 95.2909C155.88 95.4809 155.82 95.7009 155.79 95.9009L155.75 96.2009L155.67 96.4909C155.62 96.6909 155.57 96.8809 155.52 97.0609C155.37 97.4209 155.28 97.8009 155.1 98.1309C154.95 98.4609 154.78 98.7809 154.59 99.0909C154.41 99.3909 154.22 99.6709 154 99.9409C153.28 100.881 152.37 101.671 151.34 102.261C151.13 102.381 150.91 102.501 150.68 102.601L150.36 102.751L150.05 102.871C149.84 102.951 149.65 103.021 149.46 103.081L148.92 103.221C148.62 103.301 148.31 103.351 148 103.381C147.78 103.421 147.56 103.431 147.33 103.441L146.78 103.561V103.591Z" fill="#263238"/>
<path d="M143.29 98.0399C145.532 98.0399 147.35 96.2222 147.35 93.9799C147.35 91.7377 145.532 89.9199 143.29 89.9199C141.048 89.9199 139.23 91.7377 139.23 93.9799C139.23 96.2222 141.048 98.0399 143.29 98.0399Z" fill="white"/>
<path d="M143.28 98.2609C140.92 98.2609 139 96.3509 139 93.9909C139 91.6309 140.91 89.7109 143.27 89.7109C145.63 89.7109 147.55 91.6209 147.55 93.9809C147.55 96.3509 145.64 98.2609 143.28 98.2609ZM143.28 90.1509C141.16 90.1509 139.44 91.8609 139.44 93.9809C139.44 96.1009 141.15 97.8209 143.27 97.8209C145.39 97.8209 147.11 96.1109 147.11 93.9909C147.11 91.8709 145.4 90.1509 143.28 90.1509Z" fill="#263238"/>
<path d="M146.67 96.1924L146.436 96.5645L149.868 98.7321L150.103 98.3601L146.67 96.1924Z" fill="#263238"/>
<path d="M73.4101 95.9711L73.7401 95.2211C74.1501 95.5111 74.6401 95.6611 75.1501 95.6611C75.7301 95.6611 75.9701 95.4711 75.9701 95.2211C75.9701 94.4211 73.4901 94.9711 73.4901 93.3911C73.4901 92.6711 74.0801 92.0611 75.2601 92.0611C75.7801 92.0511 76.2901 92.1811 76.7401 92.4311L76.4401 93.1811C76.0801 92.9711 75.6801 92.8511 75.2601 92.8511C74.6701 92.8511 74.4501 93.0711 74.4501 93.3311C74.4501 94.1211 76.9201 93.5711 76.9201 95.1411C76.9201 95.8511 76.3301 96.4711 75.1101 96.4711C74.5001 96.4711 73.9101 96.3011 73.4001 95.9711H73.4101Z" fill="#263238"/>
<path d="M80.7402 95.0112H78.2602C78.3702 95.4312 78.7702 95.7011 79.2002 95.6711C79.5102 95.6811 79.8002 95.5711 80.0202 95.3511L80.5302 95.9012C80.1902 96.2612 79.7002 96.4612 79.2002 96.4312C78.0702 96.4312 77.3302 95.7212 77.3302 94.7512C77.3202 93.8312 78.0602 93.0711 78.9802 93.0611C79.0102 93.0611 79.0502 93.0611 79.0802 93.0611C79.9702 93.0111 80.7302 93.7011 80.7802 94.5911C80.7802 94.6511 80.7802 94.7012 80.7802 94.7612C80.7602 94.8412 80.7502 94.9411 80.7402 95.0211V95.0112ZM78.2502 94.4511H79.8602C79.7902 94.0111 79.3702 93.7012 78.9202 93.7811C78.5802 93.8411 78.3102 94.1111 78.2502 94.4511Z" fill="#263238"/>
<path d="M84.2001 94.5105V96.3805H83.3101V95.9805C83.0801 96.3005 82.7001 96.4705 82.3101 96.4205C81.5501 96.4205 81.0901 95.9805 81.0901 95.4305C81.0901 94.8805 81.5001 94.4505 82.4901 94.4505H83.2401C83.2401 94.0405 83.0001 93.8105 82.4901 93.8105C82.1501 93.8105 81.8201 93.9105 81.5501 94.1105L81.2101 93.4505C81.6301 93.1805 82.1201 93.0405 82.6201 93.0605C83.6101 93.0605 84.2001 93.5305 84.2001 94.5205V94.5105ZM83.2501 95.3405V95.0105H82.6001C82.1601 95.0105 82.0101 95.1705 82.0101 95.3905C82.0101 95.6105 82.2101 95.7805 82.5501 95.7805C82.8501 95.8005 83.1301 95.6205 83.2401 95.3405H83.2501Z" fill="#263238"/>
<path d="M87.08 93.0619V93.9519H86.87C86.43 93.9019 86.03 94.2219 85.98 94.6619C85.98 94.7319 85.98 94.8019 85.98 94.8619V96.4019H85.03V93.1319H85.92V93.5719C86.2 93.2119 86.63 93.0219 87.08 93.0619Z" fill="#263238"/>
<path d="M87.3701 94.7419C87.3701 93.8119 88.1301 93.0519 89.0601 93.0519C89.1001 93.0519 89.1501 93.0519 89.1901 93.0519C89.8001 93.0019 90.3801 93.3318 90.6501 93.8819L89.9201 94.2718C89.7801 94.0018 89.4901 93.8219 89.1801 93.8319C88.6801 93.8319 88.2701 94.2419 88.2701 94.7419C88.2701 95.2419 88.6801 95.6519 89.1801 95.6519C89.4901 95.6519 89.7801 95.4819 89.9201 95.2119L90.6501 95.6119C90.3701 96.1619 89.8001 96.4819 89.1901 96.4419C88.2601 96.5119 87.4501 95.8219 87.3701 94.8919C87.3701 94.8419 87.3701 94.7919 87.3701 94.7419Z" fill="#263238"/>
<path d="M94.5202 94.5011V96.3711H93.5702V94.6411C93.5702 94.1111 93.3302 93.8711 92.9002 93.8711C92.4702 93.8711 92.1202 94.1511 92.1202 94.7611V96.3811H91.1702V91.8711H92.1202V93.4511C92.4002 93.1811 92.7702 93.0411 93.1602 93.0611C93.9502 93.0611 94.5202 93.5111 94.5202 94.5111V94.5011Z" fill="#263238"/>
<path d="M95.1501 95.8302C95.1501 95.5002 95.4101 95.2402 95.7401 95.2402C96.0701 95.2402 96.3301 95.5002 96.3301 95.8302C96.3301 96.1602 96.0701 96.4202 95.7401 96.4202C95.4101 96.4202 95.1501 96.1602 95.1501 95.8302Z" fill="#263238"/>
<path d="M96.7402 95.8302C96.7402 95.5002 97.0002 95.2402 97.3302 95.2402C97.6602 95.2402 97.9202 95.5002 97.9202 95.8302C97.9202 96.1602 97.6602 96.4202 97.3302 96.4202C97.0002 96.4202 96.7402 96.1602 96.7402 95.8302Z" fill="#263238"/>
<path d="M98.3301 95.8302C98.3301 95.5002 98.5901 95.2402 98.9201 95.2402C99.2501 95.2402 99.5101 95.5002 99.5101 95.8302C99.5101 96.1602 99.2501 96.4202 98.9201 96.4202C98.5901 96.4202 98.3301 96.1602 98.3301 95.8302Z" fill="#263238"/>
<path d="M44.23 31.6709L29.93 24.1309C28.94 23.6109 28.56 22.3909 29.08 21.4009L39.53 1.58091C40.05 0.590911 41.28 0.210911 42.27 0.730911L51.36 5.52091L54.56 16.4709L46.96 30.8209C46.44 31.8109 45.21 32.1909 44.22 31.6709H44.23Z" fill="#FEBE24"/>
<g opacity="0.3">
<path d="M51.36 5.52148L48.41 11.0915C47.93 12.0115 48.28 13.1515 49.2 13.6415L54.56 16.4715L51.36 5.52148Z" fill="white"/>
</g>
<g opacity="0.2">
<path d="M48.22 11.6311C47.77 12.5011 47.98 13.5711 48.74 14.2011L48.9 14.3311C49.53 14.8311 53.71 18.0811 53.78 17.9711C53.85 17.8611 54.57 16.4711 54.57 16.4711L49.21 13.6411C49.21 13.6411 47.88 12.8911 48.22 11.6211V11.6311Z" fill="black"/>
</g>
<path d="M47.32 10.2404C47.28 10.3104 45.77 9.59037 43.94 8.62037C42.11 7.65037 40.66 6.82037 40.71 6.74037C40.76 6.66037 42.26 7.39037 44.09 8.36037C45.92 9.33037 47.36 10.1704 47.32 10.2404Z" fill="#FAFAFA"/>
<path d="M49.9301 15.6615C49.8901 15.7315 47.4201 14.5015 44.4101 12.9115C41.4001 11.3215 39.0001 9.96152 39.0301 9.89152C39.0601 9.82152 41.5401 11.0515 44.5501 12.6415C47.5601 14.2315 49.9701 15.5715 49.9301 15.6615Z" fill="#FAFAFA"/>
<path d="M49.5201 18.8C49.4801 18.87 46.8001 17.53 43.5201 15.79C40.2401 14.05 37.6101 12.6 37.6501 12.53C37.6901 12.46 40.3801 13.8 43.6601 15.53C46.9401 17.26 49.5701 18.72 49.5301 18.8H49.5201Z" fill="#FAFAFA"/>
<path d="M48.21 21.2812C48.17 21.3512 45.48 20.0112 42.2 18.2812C38.92 16.5512 36.29 15.0912 36.33 15.0112C36.37 14.9312 39.05 16.2812 42.33 18.0112C45.61 19.7412 48.24 21.2012 48.2 21.2812H48.21Z" fill="#FAFAFA"/>
<path d="M46.9 23.7609C46.86 23.8309 44.18 22.4909 40.9 20.7509C37.62 19.0109 34.99 17.5609 35.03 17.4909C35.07 17.4209 37.76 18.7709 41.04 20.4909C44.32 22.2109 46.93 23.6809 46.91 23.7609H46.9Z" fill="#FAFAFA"/>
<path d="M45.5899 26.2402C45.5499 26.3102 42.8599 24.9702 39.5899 23.2402C36.3199 21.5102 33.6799 20.0502 33.7199 19.9702C33.7599 19.8902 36.4399 21.2402 39.7199 22.9702C42.9999 24.7002 45.6299 26.1602 45.5899 26.2402Z" fill="#FAFAFA"/>
<path d="M151.8 175.991C150.79 175.841 150.08 174.911 150.23 173.891L152.53 157.921C152.68 157.081 153.48 156.531 154.32 156.671L155.82 156.891C156.42 156.981 157.02 156.731 157.37 156.241L157.79 155.631C158.14 155.141 158.74 154.891 159.34 154.981L166.48 156.001C167.03 156.071 167.5 156.421 167.73 156.921L168 157.531C168.23 158.031 168.7 158.371 169.25 158.451L178.34 159.761C179.18 159.851 179.79 160.611 179.7 161.461L177.35 177.791C177.2 178.801 176.27 179.511 175.25 179.361L151.82 176.001L151.8 175.991Z" fill="#455A64"/>
<g opacity="0.3">
<path d="M151.8 175.991C150.79 175.841 150.08 174.911 150.23 173.891L152.53 157.921C152.68 157.081 153.48 156.531 154.32 156.671L155.82 156.891C156.42 156.981 157.02 156.731 157.37 156.241L157.79 155.631C158.14 155.141 158.74 154.891 159.34 154.981L166.48 156.001C167.03 156.071 167.5 156.421 167.73 156.921L168 157.531C168.23 158.031 168.7 158.371 169.25 158.451L178.34 159.761C179.18 159.851 179.79 160.611 179.7 161.461L177.35 177.791C177.2 178.801 176.27 179.511 175.25 179.361L151.82 176.001L151.8 175.991Z" fill="black"/>
</g>
<path d="M168.32 158.322L162.54 157.472L162.16 156.432C161.9 155.742 161.27 155.252 160.54 155.152L154.89 154.342C153.93 154.172 153 154.812 152.82 155.772L152.73 156.432L150.23 173.772C150.11 174.882 150.91 175.882 152.02 176.012L174.98 179.342C176.08 179.532 177.13 178.802 177.33 177.702L179.69 161.322C179.8 160.592 179.3 159.922 178.57 159.812L168.34 158.322H168.32Z" fill="#455A64"/>
<path d="M159.303 163.48L158.477 169.23L172.136 171.194L172.963 165.443L159.303 163.48Z" fill="white"/>
<path d="M170.48 167.683C170.48 167.683 168.37 167.473 165.77 167.103C163.17 166.733 161.08 166.393 161.09 166.333C161.1 166.273 163.2 166.543 165.8 166.913C168.4 167.283 170.48 167.633 170.48 167.683Z" fill="#263238"/>
<path d="M170.31 168.901C170.31 168.901 168.2 168.691 165.6 168.321C163 167.951 160.91 167.611 160.92 167.551C160.93 167.491 163.03 167.761 165.63 168.131C168.23 168.501 170.32 168.851 170.31 168.901Z" fill="#263238"/>
<path d="M183.96 179.391C184.85 179.821 185.53 180.591 185.84 181.521C186.14 182.451 186.23 183.441 186.09 184.411C185.88 186.281 184.81 188.181 183.67 189.671C182.09 188.291 181.73 185.891 181.62 184.661C181.45 182.721 182.33 179.101 183.96 179.391Z" fill="#FEBE24"/>
<path d="M185.5 192.761C185.28 191.671 185.67 190.551 186.5 189.811C187.34 189.101 188.44 188.761 189.53 188.861C190.04 188.861 190.53 189.071 190.86 189.461C191.1 189.871 191.1 190.381 190.86 190.791C190.62 191.201 190.28 191.541 189.87 191.771C188.5 192.631 187.03 193.211 185.48 192.741" fill="#FEBE24"/>
<path d="M183.47 198.511C183.47 198.381 183.5 198.251 183.53 198.121C183.58 197.851 183.64 197.501 183.72 197.081C183.9 195.921 184.26 194.801 184.79 193.751C185.35 192.711 186.17 191.831 187.17 191.221C187.48 191.031 187.8 190.881 188.15 190.781C188.27 190.741 188.36 190.731 188.43 190.711C188.46 190.711 188.5 190.711 188.53 190.711C188.08 190.871 187.64 191.071 187.23 191.311C186.26 191.941 185.46 192.811 184.91 193.831C184.38 194.861 184.01 195.971 183.81 197.111C183.72 197.551 183.64 197.901 183.58 198.141C183.55 198.271 183.52 198.391 183.47 198.511Z" fill="#263238"/>
<path d="M183.53 182.201C183.53 182.261 183.53 182.311 183.53 182.371L183.56 182.851C183.58 183.271 183.61 183.871 183.63 184.621C183.68 186.121 183.72 188.201 183.71 190.491C183.7 192.781 183.64 194.861 183.58 196.361C183.55 197.111 183.52 197.721 183.49 198.131C183.49 198.331 183.49 198.491 183.46 198.611C183.46 198.671 183.46 198.721 183.46 198.781C183.46 198.721 183.46 198.661 183.46 198.611V198.131C183.46 197.691 183.49 197.091 183.5 196.361C183.54 194.861 183.58 192.781 183.59 190.491C183.6 188.201 183.59 186.121 183.55 184.621C183.55 183.881 183.53 183.291 183.52 182.851V182.371C183.52 182.311 183.52 182.251 183.52 182.201H183.53Z" fill="#263238"/>
<path d="M182.77 193.901C182.39 191.591 180.92 189.611 178.81 188.581C178.28 188.331 177.59 188.161 177.16 188.551C176.73 188.941 176.82 189.651 177.04 190.191C177.99 192.501 180.23 194.021 182.73 194.041" fill="#FEBE24"/>
<path d="M179.07 190.372C179.19 190.412 179.3 190.462 179.4 190.522C179.53 190.582 179.66 190.652 179.78 190.722C179.92 190.812 180.09 190.892 180.26 191.022C180.45 191.152 180.64 191.282 180.81 191.432C181.01 191.602 181.21 191.782 181.4 191.962C181.82 192.392 182.2 192.882 182.52 193.392C182.83 193.912 183.07 194.472 183.25 195.052C183.33 195.302 183.39 195.562 183.44 195.822C183.48 196.052 183.52 196.272 183.53 196.502C183.55 196.692 183.56 196.882 183.56 197.072C183.57 197.222 183.57 197.372 183.56 197.512C183.56 197.632 183.54 197.752 183.52 197.872C183.49 197.872 183.54 197.352 183.45 196.542C183.43 196.312 183.39 196.092 183.34 195.872C183.3 195.632 183.22 195.382 183.14 195.112C182.78 193.972 182.15 192.932 181.32 192.072C181.14 191.882 180.95 191.702 180.75 191.542C180.58 191.392 180.4 191.252 180.22 191.122C179.53 190.602 179.05 190.382 179.07 190.352V190.372Z" fill="#263238"/>
<path d="M51.23 186.33L50.96 199.23L67.94 199.63C67.88 198.09 59.18 194.81 59.18 194.81L59.71 186.55L51.23 186.33Z" fill="#455A64"/>
<g opacity="0.6">
<path d="M53.9402 193.991C53.6102 194.071 53.3902 194.391 53.4402 194.731C53.5302 195.061 53.8702 195.271 54.2102 195.201C54.5502 195.151 54.7902 194.841 54.7502 194.501C54.7002 194.161 54.3902 193.921 54.0502 193.961C53.9902 193.961 53.9402 193.981 53.8802 194.011" fill="white"/>
</g>
<g opacity="0.6">
<path d="M50.96 199.232L51.04 197.932L67.29 198.822C67.29 198.822 68.04 199.152 67.94 199.652L50.96 199.232Z" fill="white"/>
</g>
<path d="M59.4501 194.732C59.4501 194.812 59.0301 194.842 58.6201 195.082C58.2101 195.322 57.9801 195.642 57.9101 195.612C57.8401 195.582 57.9701 195.132 58.4801 194.842C58.9901 194.552 59.4801 194.652 59.4601 194.722L59.4501 194.732Z" fill="#263238"/>
<path d="M61.2201 195.471C61.2201 195.551 60.8701 195.671 60.5801 195.991C60.2901 196.311 60.2001 196.661 60.1401 196.661C60.0801 196.661 60.0201 196.221 60.3801 195.811C60.7401 195.401 61.2201 195.391 61.2201 195.461V195.471Z" fill="#263238"/>
<path d="M62.18 197.511C62.1 197.511 62 197.131 62.22 196.711C62.44 196.291 62.84 196.121 62.87 196.191C62.9 196.261 62.66 196.481 62.48 196.831C62.3 197.181 62.26 197.511 62.18 197.511Z" fill="#263238"/>
<path d="M59.3502 192.841C59.3102 192.911 58.9302 192.801 58.4602 192.811C57.9902 192.821 57.6202 192.961 57.5702 192.891C57.5202 192.821 57.8902 192.551 58.4602 192.541C59.0302 192.531 59.4002 192.781 59.3502 192.841Z" fill="#263238"/>
<path d="M59 190.921C58.72 190.991 58.43 190.981 58.15 190.901C57.84 190.841 57.55 190.751 57.26 190.621C57.09 190.541 56.93 190.461 56.78 190.361C56.69 190.311 56.6 190.241 56.53 190.161C56.42 190.051 56.41 189.871 56.5 189.741C56.59 189.631 56.72 189.561 56.87 189.571C56.98 189.571 57.08 189.591 57.19 189.621C57.37 189.671 57.55 189.731 57.72 189.811C58 189.941 58.26 190.111 58.49 190.321C58.88 190.671 59 190.971 58.97 190.981C58.94 190.991 58.75 190.761 58.35 190.461C58.12 190.291 57.87 190.151 57.6 190.041C57.44 189.981 57.28 189.931 57.11 189.891C56.93 189.841 56.78 189.841 56.73 189.891C56.68 189.941 56.73 189.931 56.73 189.981C56.78 190.041 56.84 190.081 56.91 190.121C57.05 190.211 57.2 190.301 57.35 190.371C57.61 190.501 57.88 190.611 58.17 190.691C58.45 190.751 58.72 190.821 58.99 190.921H59Z" fill="#263238"/>
<path d="M58.9001 191.03C58.7501 190.8 58.6701 190.52 58.7001 190.25C58.7001 189.95 58.7401 189.65 58.8401 189.36C58.9001 189.19 58.9801 189.03 59.0701 188.88C59.1801 188.66 59.3801 188.51 59.6201 188.49C59.7701 188.49 59.9101 188.59 59.9701 188.73C60.0101 188.82 60.0401 188.92 60.0501 189.03C60.0801 189.21 60.0801 189.39 60.0501 189.57C59.9901 189.87 59.8601 190.15 59.6701 190.39C59.3201 190.8 58.9801 190.88 58.9701 190.86C58.9601 190.84 59.2401 190.68 59.5001 190.28C59.6501 190.05 59.7501 189.8 59.7901 189.53C59.8101 189.38 59.8101 189.22 59.7901 189.06C59.7901 188.89 59.7101 188.75 59.6401 188.77C59.5701 188.79 59.4001 188.89 59.3301 189.03C59.2401 189.17 59.1701 189.32 59.1101 189.47C59.0101 189.73 58.9401 189.99 58.9201 190.27C58.8501 190.74 58.9301 191.03 58.9001 191.04V191.03Z" fill="#263238"/>
<path d="M38.3601 187.401L36.7201 200.201L19.8601 198.111C20.1401 196.601 29.2401 194.631 29.2401 194.631L29.9201 186.381L38.3601 187.401Z" fill="#455A64"/>
<g opacity="0.6">
<path d="M34.5501 194.581C34.8701 194.711 35.0401 195.061 34.9401 195.381C34.8001 195.691 34.4401 195.851 34.1101 195.731C33.7701 195.601 33.5901 195.221 33.7101 194.881C33.8901 194.581 34.2701 194.461 34.6001 194.601" fill="white"/>
</g>
<g opacity="0.6">
<path d="M36.7201 200.201L36.8301 198.901L20.6301 197.381C20.6301 197.381 19.8601 197.581 19.8601 198.101L36.7201 200.191V200.201Z" fill="white"/>
</g>
<path d="M28.99 194.511C28.99 194.591 29.39 194.671 29.77 194.981C30.15 195.291 30.32 195.631 30.4 195.611C30.48 195.591 30.4 195.131 29.96 194.771C29.52 194.411 28.99 194.441 29 194.511H28.99Z" fill="#263238"/>
<path d="M27.14 194.981C27.11 195.061 27.45 195.231 27.69 195.601C27.93 195.971 27.97 196.321 28.05 196.331C28.13 196.341 28.24 195.891 27.93 195.441C27.62 194.991 27.14 194.921 27.14 194.981Z" fill="#263238"/>
<path d="M25.89 196.861C25.96 196.891 26.12 196.511 25.96 196.061C25.8 195.611 25.44 195.391 25.4 195.451C25.36 195.511 25.57 195.771 25.69 196.141C25.81 196.511 25.81 196.841 25.89 196.861Z" fill="#263238"/>
<path d="M29.3702 192.651C29.4002 192.731 29.7902 192.651 30.2602 192.751C30.7302 192.851 31.0702 193.021 31.1202 192.961C31.1702 192.901 30.8602 192.581 30.3102 192.481C29.7602 192.381 29.3402 192.581 29.3702 192.651Z" fill="#263238"/>
<path d="M30 190.811C30.27 190.911 30.56 190.951 30.84 190.911C31.15 190.901 31.46 190.851 31.75 190.761C31.93 190.711 32.1 190.651 32.26 190.581C32.36 190.541 32.45 190.491 32.54 190.421C32.66 190.321 32.7 190.151 32.63 190.011C32.56 189.891 32.43 189.801 32.29 189.781C32.18 189.771 32.08 189.771 31.97 189.781C31.79 189.801 31.6 189.831 31.42 189.891C31.12 189.971 30.84 190.101 30.58 190.281C30.14 190.571 29.98 190.851 30.01 190.871C30.04 190.891 30.26 190.681 30.69 190.451C31.09 190.231 31.54 190.101 31.99 190.061C32.18 190.041 32.33 190.061 32.36 190.141C32.39 190.221 32.36 190.181 32.33 190.231C32.27 190.281 32.2 190.311 32.13 190.341C31.98 190.411 31.82 190.481 31.66 190.531C31.38 190.621 31.1 190.691 30.81 190.731C30.53 190.741 30.26 190.771 29.99 190.831L30 190.811Z" fill="#263238"/>
<path d="M30.0902 190.92C30.2802 190.71 30.3902 190.45 30.4102 190.17C30.4602 189.88 30.4602 189.58 30.4102 189.28C30.3802 189.1 30.3302 188.93 30.2502 188.77C30.1802 188.54 29.9902 188.36 29.7602 188.3C29.6102 188.28 29.4602 188.35 29.3802 188.48C29.3302 188.57 29.2902 188.66 29.2602 188.76C29.2102 188.93 29.1902 189.12 29.1902 189.3C29.1902 189.61 29.2802 189.92 29.4502 190.19C29.7302 190.63 30.0602 190.78 30.0802 190.75C30.1002 190.72 29.8402 190.53 29.6402 190.1C29.5202 189.85 29.4702 189.59 29.4702 189.31C29.4702 189.16 29.4902 189.01 29.5402 188.87C29.5802 188.7 29.6702 188.57 29.7402 188.6C29.8102 188.63 29.9502 188.76 30.0002 188.9C30.0702 189.04 30.1202 189.19 30.1602 189.34C30.2202 189.61 30.2402 189.88 30.2302 190.16C30.1902 190.63 30.0802 190.91 30.1102 190.91L30.0902 190.92Z" fill="#263238"/>
<path d="M64.4001 117.852L37.9601 118.702C37.9601 118.702 31.7301 160.312 31.9001 163.212L28.0601 193.382L39.2401 193.772C39.2401 193.772 41.0101 183.982 42.2301 177.282C43.0501 172.842 44.5401 166.292 44.9401 162.562C45.3401 158.832 51.8801 132.832 51.8801 132.832C51.8801 132.832 51.4001 163.002 51.4101 164.242C51.4201 165.482 50.1101 193.732 50.1101 193.732H61.2001C61.7701 188.632 63.1301 168.232 63.4201 164.112C63.9501 156.662 65.6401 135.632 65.8601 130.262C66.0801 124.892 64.3901 117.852 64.3901 117.852H64.4001Z" fill="#263238"/>
<path d="M62.6601 118.05C62.5401 117.42 62.5401 116.78 62.6601 116.16C62.7901 116.78 62.7901 117.43 62.6601 118.05Z" fill="#455A64"/>
<path d="M63.76 118.56C63.55 117.76 63.62 116.92 63.96 116.16C63.95 116.56 63.91 116.96 63.84 117.36C63.84 117.76 63.81 118.16 63.76 118.56Z" fill="#455A64"/>
<path d="M53.8801 116.572C53.6701 116.612 53.4701 116.722 53.3201 116.892C53.1701 117.062 53.1001 117.292 53.1401 117.522C53.2501 117.902 53.6601 118.122 54.0401 118.012C54.1901 117.972 54.3101 117.882 54.4101 117.762C54.5201 117.562 54.5501 117.332 54.4701 117.112C54.3901 116.902 54.2501 116.732 54.0601 116.612C54.0601 116.612 54.1401 116.612 54.2501 116.662C54.4101 116.752 54.5301 116.892 54.6001 117.062C54.7101 117.312 54.7001 117.612 54.5601 117.852C54.2801 118.252 53.7301 118.352 53.3301 118.072C53.1501 117.952 53.0201 117.762 52.9701 117.542C52.9301 117.262 53.0301 116.992 53.2301 116.792C53.3601 116.662 53.5201 116.572 53.7001 116.552C53.8201 116.542 53.8901 116.562 53.8901 116.572H53.8801Z" fill="#455A64"/>
<path d="M41.6901 162.491C40.7201 162.201 39.7801 161.841 38.8601 161.431C37.9101 161.081 36.9901 160.661 36.1001 160.191C37.0701 160.481 38.0101 160.841 38.9401 161.251C39.8801 161.601 40.8001 162.021 41.7001 162.491H41.6901Z" fill="#455A64"/>
<path d="M40.27 55.311C40.35 53.771 41.3 52.821 42.63 52.041C43.99 51.251 45.64 51.181 47.07 51.841C48 52.281 48.82 53.041 49.84 53.171C51.53 53.391 53.12 51.841 54.77 52.221C55.95 52.501 56.67 53.691 56.39 54.861C56.18 55.721 55.48 56.371 54.61 56.511C55.71 56.671 56.34 58.071 55.94 59.101C55.54 60.131 54.38 60.741 53.28 60.761C52.16 60.721 51.07 60.381 50.13 59.771C49.17 59.211 48.27 58.541 47.26 58.061C46.27 57.531 45.13 57.361 44.03 57.591C42.57 57.981 41.54 59.361 41.16 60.811C40.78 62.261 40.94 63.811 41.16 65.301C41.38 66.791 41.67 68.291 41.53 69.801C41.53 69.971 41.45 70.141 41.32 70.241C41.1 70.361 40.84 70.161 40.68 69.961C38.81 67.741 37.4 65.181 36.52 62.421C36.01 60.821 35.73 59.271 36.34 57.701C36.95 56.131 39 54.651 40.31 55.291" fill="#263238"/>
<path d="M38.8401 62.7501L41.3001 77.9601C41.7401 80.8001 43.6101 83.5501 48.0601 82.6101C51.8701 81.5101 51.5801 78.7701 51.0901 75.4001C51.0901 75.4001 55.2801 74.3101 54.9001 70.0501C54.7201 67.9901 54.0101 63.7801 53.3101 59.9901C52.5601 55.9101 48.8101 53.0901 44.6801 53.5101L44.2701 53.5501C39.8701 54.2701 38.0101 58.3801 38.8401 62.7601V62.7501Z" fill="#FFBE9D"/>
<path d="M51.0901 75.3905C49.1301 75.5805 47.1501 75.2105 45.3901 74.3105C45.3901 74.3105 47.0601 77.4706 51.2601 76.6606L51.0901 75.3905Z" fill="#EB996E"/>
<path d="M52.47 63.7112C52.51 64.0412 52.27 64.3412 51.95 64.3812C51.64 64.4412 51.34 64.2312 51.28 63.9212C51.28 63.9212 51.28 63.9012 51.28 63.8912C51.24 63.5612 51.48 63.2612 51.8 63.2212C52.12 63.1612 52.42 63.3712 52.48 63.6912C52.48 63.6912 52.48 63.7012 52.48 63.7112H52.47Z" fill="#263238"/>
<path d="M52.6 62.1608C52.53 62.2508 52.04 61.9508 51.38 62.0208C50.72 62.0908 50.28 62.4608 50.2 62.3908C50.12 62.3208 50.23 62.2108 50.42 62.0408C50.68 61.8108 51.01 61.6808 51.36 61.6508C51.7 61.6108 52.04 61.6908 52.34 61.8608C52.56 61.9908 52.64 62.1308 52.61 62.1708L52.6 62.1608Z" fill="#263238"/>
<path d="M46.52 64.6506C46.56 64.9806 46.32 65.2806 46 65.3206C45.69 65.3806 45.39 65.1706 45.33 64.8606C45.33 64.8606 45.33 64.8406 45.33 64.8306C45.29 64.5006 45.53 64.2006 45.85 64.1606C46.17 64.1006 46.47 64.3106 46.53 64.6306C46.53 64.6306 46.53 64.6406 46.53 64.6506H46.52Z" fill="#263238"/>
<path d="M46.32 62.9303C46.25 63.0103 45.76 62.7203 45.1 62.7903C44.44 62.8603 44 63.2303 43.92 63.1603C43.84 63.0903 43.95 62.9803 44.14 62.8103C44.4 62.5803 44.73 62.4503 45.08 62.4203C45.42 62.3803 45.76 62.4603 46.06 62.6303C46.28 62.7603 46.36 62.9003 46.33 62.9403L46.32 62.9303Z" fill="#263238"/>
<path d="M49.05 67.5409C49.38 67.3909 49.73 67.2909 50.09 67.2409C50.25 67.2109 50.41 67.1609 50.43 67.0409C50.43 66.8709 50.37 66.7009 50.27 66.5609C50.07 66.1709 49.86 65.7709 49.65 65.3409C48.76 63.6009 48.14 62.1609 48.21 62.1309C48.86 63.1209 49.42 64.1609 49.9 65.2409L50.5 66.4709C50.62 66.6609 50.68 66.8909 50.65 67.1109C50.61 67.2409 50.52 67.3409 50.4 67.3909C50.31 67.4209 50.22 67.4409 50.12 67.4609C49.77 67.5309 49.4 67.5709 49.04 67.5509L49.05 67.5409Z" fill="#263238"/>
<path d="M46.1001 60.3505C46.0601 60.5405 45.3901 60.5205 44.6401 60.6905C43.8901 60.8605 43.2801 61.1306 43.1701 60.9806C43.1201 60.9006 43.2101 60.7306 43.4401 60.5406C44.0701 60.0506 44.8801 59.8706 45.6601 60.0606C45.9701 60.1406 46.1301 60.2705 46.1101 60.3505H46.1001Z" fill="#263238"/>
<path d="M52.1701 60.2908C52.0701 60.4508 51.6001 60.3408 51.0601 60.3908C50.5201 60.4408 50.0701 60.5908 49.9501 60.4408C49.9001 60.3708 49.9501 60.2108 50.1401 60.0508C50.6501 59.6608 51.3501 59.6108 51.9101 59.9308C52.1301 60.0608 52.2101 60.2108 52.1601 60.2808L52.1701 60.2908Z" fill="#263238"/>
<path d="M39.5 65.8615C39.42 65.8315 36.49 65.2915 36.88 68.1815C37.27 71.0715 40.1 70.1015 40.09 70.0115C40.08 69.9215 39.5 65.8514 39.5 65.8514V65.8615Z" fill="#FFBE9D"/>
<path d="M39.05 69.0419C39.05 69.0419 39.01 69.0819 38.93 69.1319C38.82 69.2019 38.68 69.2219 38.55 69.1919C38.14 69.0019 37.86 68.6019 37.82 68.1419C37.78 67.8919 37.79 67.6419 37.86 67.4019C37.89 67.2119 38.01 67.0419 38.19 66.9619C38.3 66.9119 38.44 66.9619 38.51 67.0619C38.56 67.1419 38.55 67.2019 38.57 67.2019C38.59 67.2019 38.62 67.1419 38.57 67.0319C38.55 66.9619 38.5 66.9019 38.43 66.8719C38.34 66.8219 38.24 66.8119 38.14 66.8319C37.91 66.9219 37.75 67.1119 37.7 67.3519C37.61 67.6219 37.59 67.9019 37.63 68.1819C37.67 68.7119 38.02 69.1619 38.52 69.3319C38.68 69.3519 38.84 69.3019 38.96 69.1919C39.05 69.1219 39.06 69.0519 39.05 69.0519V69.0419Z" fill="#EB996E"/>
<path d="M52.96 56.0412C52.46 55.2612 51.78 54.6112 50.97 54.1612C49.27 53.1012 47.28 52.6112 45.28 52.7412C43.27 52.9012 41.41 53.8312 40.08 55.3312C39.06 56.5712 38.43 58.0712 38.26 59.6612C38.09 61.2512 38.25 62.8512 38.7 64.3812C38.84 65.0712 39.18 65.7012 39.68 66.1912C40.01 66.4712 40.57 66.6312 40.86 66.3312C41.03 66.1312 41.12 65.8812 41.13 65.6212C41.46 63.3212 41.77 60.8512 40.74 58.7712C41.2 57.9712 41.82 57.2812 42.55 56.7312C43.3 56.1812 44.24 55.9512 45.15 56.1012C46.48 56.3712 47.41 57.5512 48.54 58.3212C50.18 59.4312 52.26 59.6812 54.12 59.0012L52.96 56.0112V56.0412Z" fill="#263238"/>
<path d="M49.63 69.3013C49.6 69.5813 49.52 69.8413 49.41 70.1013C49.3 70.3613 49.08 70.5513 48.81 70.6413C48.52 70.7013 48.21 70.6113 48 70.4013C47.8 70.1813 47.67 69.9113 47.63 69.6113C47.59 69.3413 47.63 69.0113 47.89 68.9212C48 68.9013 48.11 68.9013 48.22 68.9212L49.7 69.1913" fill="#EB996E"/>
<path d="M49.3201 70.5415C49.0801 70.6115 48.8201 70.6315 48.5701 70.6015C48.3101 70.5615 48.0801 70.4215 47.9201 70.2115C47.7301 69.9615 47.6501 69.6315 47.7201 69.3215C47.7301 69.2415 47.7601 69.1715 47.8001 69.0915C47.8401 69.0215 47.8301 69.0215 47.8901 69.0215C47.9701 69.0215 48.0501 69.0415 48.1301 69.0615L48.3701 69.1015L49.2101 69.2415C49.4701 69.3015 49.7301 69.3215 50.0001 69.3115C49.7701 69.1915 49.5101 69.1115 49.2501 69.0715C49.0101 69.0115 48.7301 68.9515 48.4201 68.8715L48.1801 68.8215C48.0901 68.8215 48.0201 68.7815 47.9101 68.7715C47.8401 68.7715 47.7701 68.7815 47.7101 68.8215C47.6601 68.8615 47.6201 68.9115 47.5901 68.9715C47.5401 69.0615 47.5101 69.1615 47.4901 69.2615C47.4101 69.6415 47.5101 70.0415 47.7601 70.3415C47.9601 70.5815 48.2501 70.7315 48.5701 70.7515C48.7701 70.7715 48.9801 70.7515 49.1601 70.6615C49.2901 70.5915 49.3401 70.5315 49.3301 70.5215L49.3201 70.5415Z" fill="#263238"/>
<path d="M60.1201 63.0511L60.8101 62.8611L71.5201 73.2611L80.2101 74.3111C80.2101 74.3111 80.1201 71.6911 76.8601 68.3411C73.9301 65.3511 67.1201 61.8011 64.8101 59.9611C64.5101 59.7111 64.1701 59.5111 63.8101 59.3711L60.1201 63.0411V63.0511Z" fill="#FFBE9D"/>
<path d="M60.1201 58.1003L59.0201 57.7903L56.4401 56.5703L53.5001 57.6703C53.5001 57.6703 53.5701 58.6703 54.3401 58.4003L51.2601 59.4203C51.2601 59.4203 51.5101 60.1503 51.6501 60.2003C51.7901 60.2503 49.8401 60.4103 49.8401 60.4103C49.8401 60.4103 49.8401 61.4003 51.6801 61.3803C53.5201 61.3603 54.2401 61.0503 54.2401 61.0503L55.7201 61.4403L55.6601 62.3303L53.6501 62.3003L53.7401 63.4303C54.6001 63.6103 55.4601 63.7403 56.3301 63.8303C56.3301 63.8303 59.4401 63.8703 60.2801 63.4703C61.1201 63.0703 62.2001 62.4803 62.2001 62.4803L63.8101 59.4103L60.1201 58.1203V58.1003Z" fill="#FFBE9D"/>
<path d="M57.3401 58.6216C57.3401 58.6216 57.1701 58.5616 56.9001 58.4416C56.5401 58.2816 56.1901 58.1016 55.8601 57.8916H55.9901L55.8701 57.9716C55.5001 58.2016 55.0901 58.3616 54.6601 58.4116C54.3301 58.4516 54.1301 58.4116 54.1301 58.4116C54.7001 58.2716 55.2401 58.0716 55.7501 57.7916L55.8601 57.7216L55.9301 57.6816L56.0001 57.7316C56.3601 57.9816 56.7401 58.1716 56.9901 58.3316C57.2401 58.4916 57.3801 58.6116 57.3501 58.6416L57.3401 58.6216Z" fill="#EB996E"/>
<path d="M56.4 60.1813C56.4 60.1813 56.2 60.2513 55.9 60.1213C55.6 59.9913 55.27 59.6813 54.85 59.5013H54.96C54.77 59.6313 54.57 59.7413 54.37 59.8413C53.85 60.0913 53.29 60.2313 52.71 60.2513C52.47 60.2813 52.23 60.2512 52.01 60.1712C52.79 60.1112 53.55 59.9313 54.27 59.6313C54.47 59.5413 54.66 59.4313 54.84 59.3113L54.9 59.2812H54.95C55.43 59.5212 55.71 59.8513 55.97 59.9813C56.23 60.1113 56.41 60.1413 56.41 60.1813H56.4Z" fill="#EB996E"/>
<path d="M59.15 61.1515C59.15 61.1515 58.92 61.1215 58.57 61.1215C58.12 61.1215 57.67 61.2615 57.29 61.5115C57.04 61.6715 56.82 61.8915 56.66 62.1415L56.63 62.1815H56.59C56.25 62.2815 55.89 62.3215 55.54 62.3115C55.86 62.1515 56.2 62.0415 56.55 61.9915L56.48 62.0315C56.65 61.7415 56.88 61.5015 57.16 61.3215C57.58 61.0515 58.07 60.9215 58.57 60.9715C58.95 61.0115 59.16 61.1415 59.14 61.1715L59.15 61.1515Z" fill="#EB996E"/>
<path d="M62.2 62.4515C62.2 62.4515 62.14 62.4915 62.11 62.5115L61.83 62.6715L60.76 63.2515C60.51 63.4115 60.23 63.5315 59.95 63.6115C59.61 63.6915 59.26 63.7515 58.91 63.7815C58.16 63.8615 57.29 63.8915 56.34 63.8915L55.18 63.7715C54.75 63.7315 54.33 63.6615 53.91 63.5515H53.87V63.4915C53.81 63.1015 53.74 62.6815 53.67 62.2515L53.65 62.1315H53.77L55.69 62.2115L55.57 62.3115C55.57 62.0415 55.61 61.7415 55.63 61.4215L55.71 61.5415L54.23 61.1515H54.31C53.59 61.3715 52.84 61.4815 52.09 61.4915C51.7 61.5115 51.31 61.4915 50.92 61.4315C50.49 61.3815 50.11 61.1415 49.87 60.7915C49.8 60.6715 49.76 60.5415 49.75 60.4115V60.3115H49.86C50.3 60.2715 50.78 60.2315 51.23 60.1815L51.56 60.1415H51.63V60.1615C51.63 60.1615 51.59 60.2215 51.6 60.2615C51.6 60.3015 51.68 60.3515 51.66 60.3415C51.63 60.3315 51.61 60.3115 51.59 60.3015C51.54 60.2515 51.5 60.1915 51.47 60.1315C51.37 59.9315 51.28 59.7215 51.2 59.5015L51.16 59.3915L51.27 59.3515L54.38 58.3415L54.45 58.5415C54.33 58.5915 54.19 58.6015 54.06 58.5815C53.92 58.5615 53.8 58.4915 53.71 58.3815C53.56 58.1915 53.48 57.9515 53.46 57.7115V57.6315L53.54 57.6015L56.48 56.5215H56.55L59.13 57.7615L60.21 58.0715L61.15 58.4015L62.64 58.9415L63.58 59.2915C63.69 59.3215 63.8 59.3715 63.9 59.4215C63.79 59.4015 63.68 59.3615 63.57 59.3315L62.62 59.0215L61.12 58.5215L60.18 58.2015L59.1 57.9115L56.51 56.7015H56.59L53.65 57.8015L53.72 57.6915C53.73 57.8915 53.8 58.0815 53.92 58.2415C54.05 58.3715 54.25 58.4115 54.42 58.3315L54.49 58.5415L51.42 59.5615L51.49 59.4115C51.56 59.6115 51.64 59.8115 51.74 60.0015C51.76 60.0415 51.78 60.0815 51.81 60.1115C51.81 60.1115 51.79 60.1415 51.78 60.1615C51.82 60.0415 51.78 60.1315 51.81 60.1115H51.84C51.84 60.1115 51.87 60.1515 51.88 60.1815C51.88 60.2215 51.88 60.2615 51.85 60.2915C51.81 60.3315 51.82 60.3115 51.81 60.3215H51.68L51.34 60.3615C50.9 60.4115 50.45 60.4515 49.97 60.4915L50.07 60.3815C50.08 60.4715 50.11 60.5615 50.15 60.6415C50.36 60.9315 50.68 61.1215 51.04 61.1715C51.41 61.2315 51.78 61.2515 52.16 61.2215C52.88 61.2215 53.6 61.1115 54.29 60.9115H54.37L55.85 61.3115H55.94V61.4015C55.94 61.7115 55.9 62.0115 55.88 62.2915V62.4015H55.77L53.86 62.3115L53.97 62.1915C54.04 62.6315 54.1 63.0515 54.16 63.4315L54.11 63.3615C54.51 63.4615 54.91 63.5315 55.32 63.5715L56.47 63.7015C57.42 63.7015 58.27 63.7015 59.02 63.6315C59.37 63.6115 59.71 63.5615 60.05 63.4915C60.33 63.4115 60.6 63.3015 60.85 63.1515L61.94 62.6115L62.23 62.4815C62.23 62.4815 62.21 62.4615 62.22 62.4615L62.2 62.4515Z" fill="#EB996E"/>
<path d="M58.4902 59.1108C58.2102 59.5808 57.8201 59.9808 57.3501 60.2708C56.9201 60.6208 56.4201 60.8608 55.8801 60.9708C55.8501 60.9108 56.5001 60.5908 57.2101 60.0808C57.9201 59.5708 58.4302 59.0608 58.4902 59.1108Z" fill="#EB996E"/>
<path d="M80.1102 73.9915L71.5202 73.2715L61.3902 77.1315L59.1702 78.4915L62.3302 89.3315C62.3302 89.3315 78.2102 79.9715 78.8802 79.1715C80.1102 77.7515 80.5702 75.8215 80.1102 74.0015V73.9915Z" fill="#FEBE24"/>
<path d="M34.23 81.9609L31.27 83.7909L38.09 110.661L36.85 126.151C38.62 127.691 43.06 129.001 51.49 128.521C59.92 128.041 65.55 124.371 65.55 124.371L64.74 108.441L62.82 90.4609L60.67 78.1709L54.17 78.6409L51.64 77.1409L50.5 77.7109L49.04 81.7509L45.25 79.0109L40.81 76.8809L39.19 79.9009L34.21 81.9709L34.23 81.9609Z" fill="#FEBE24"/>
<path d="M60.6802 81.2913C60.7702 81.4813 60.8502 81.6812 60.9102 81.8812C61.0502 82.2712 61.2302 82.8413 61.4402 83.5513C61.9802 85.4013 62.4302 87.2712 62.7702 89.1712C63.1002 91.0612 63.3402 92.9713 63.4702 94.8913C63.5202 95.6313 63.5402 96.2212 63.5502 96.6312C63.5702 96.8412 63.5702 97.0612 63.5502 97.2712C63.5102 97.0612 63.4802 96.8512 63.4702 96.6312C63.4302 96.1912 63.3802 95.6013 63.3202 94.9013C63.1802 93.4413 62.9502 91.4112 62.5502 89.2012C62.1502 86.9912 61.6802 85.0112 61.3102 83.5912C61.1302 82.9112 60.9702 82.3413 60.8702 81.9013C60.7802 81.7013 60.7202 81.4912 60.6802 81.2812V81.2913Z" fill="#263238"/>
<path d="M47.8501 81.5005C47.6301 81.4605 47.4301 81.3905 47.2401 81.2705C46.7101 80.9905 46.2601 80.6006 45.9101 80.1206L46.0701 80.0806C45.9801 81.4006 45.7101 82.7105 45.2801 83.9605L45.2301 84.1005L45.1101 84.0205L44.8001 83.8006C43.2701 82.7506 41.8901 81.7906 40.9001 81.0806L39.7401 80.2306C39.5901 80.1306 39.4501 80.0205 39.3301 79.8905C39.4901 79.9605 39.6401 80.0506 39.7701 80.1506L40.9701 80.9406C41.9901 81.6106 43.3701 82.5605 44.9001 83.6005L45.2201 83.8105L45.0401 83.8706C45.4701 82.6306 45.7501 81.3506 45.8701 80.0506V79.8105L46.0101 80.0106C46.3401 80.4806 46.7601 80.8805 47.2601 81.1805C47.6501 81.4005 47.8601 81.4805 47.8501 81.5005Z" fill="#263238"/>
<path d="M53.9201 79.1101C53.4801 79.6901 53.0001 80.2401 52.4801 80.7501L52.4001 80.8301L52.3201 80.7401C52.0201 80.3901 51.7001 80.0601 51.3601 79.7601C51.1701 79.6001 50.9901 79.4501 50.8101 79.3201L50.5401 79.1201C50.5401 79.1201 50.5001 79.1201 50.4801 79.1201L50.4401 79.1901L50.0301 80.2501C49.9201 80.5801 49.7701 80.9001 49.5901 81.2001C49.6501 80.8501 49.7401 80.5101 49.8701 80.1901C49.9901 79.8601 50.1101 79.5001 50.2401 79.1201C50.2601 79.0401 50.3201 78.9701 50.4001 78.9301C50.4901 78.9001 50.5801 78.9201 50.6601 78.9701L50.9401 79.1701C51.1301 79.3101 51.3201 79.4601 51.5101 79.6101C51.8601 79.9201 52.1901 80.2601 52.4901 80.6301H52.3301C52.8301 80.0901 53.3701 79.5801 53.9401 79.1301L53.9201 79.1101Z" fill="#263238"/>
<path d="M52.16 127.352C62.14 125.482 71.74 132.042 73.61 142.022C75.48 152.002 68.92 161.602 58.94 163.472C55.17 164.182 51.28 163.692 47.8 162.072C38.6 157.792 34.61 146.852 38.9 137.652C41.4 132.272 46.35 128.442 52.17 127.342H52.15L52.16 127.352ZM58.72 162.262C68.02 160.502 74.13 151.542 72.37 142.252C70.61 132.952 61.65 126.842 52.36 128.602C43.06 130.362 36.95 139.322 38.71 148.612C39.74 154.042 43.31 158.632 48.32 160.962C51.57 162.472 55.21 162.922 58.72 162.262Z" fill="#455A64"/>
<path d="M55.5201 164.69C44.8301 164.7 36.1501 156.05 36.1401 145.36C36.1301 134.67 44.7801 125.99 55.4701 125.98C66.1601 125.97 74.8401 134.62 74.8501 145.31C74.8601 153.44 69.7901 160.71 62.1501 163.51C60.0301 164.29 57.7801 164.69 55.5201 164.69ZM55.5601 129.14C46.5801 129.14 39.2901 136.41 39.2801 145.39C39.2801 154.37 46.5501 161.66 55.5301 161.67C56.5401 161.67 57.5501 161.58 58.5401 161.39C63.6901 160.41 68.0601 157.02 70.2801 152.27C74.0701 144.12 70.5301 134.44 62.3801 130.65C60.2401 129.65 57.9101 129.14 55.5401 129.13L55.5601 129.14Z" fill="#455A64"/>
<path d="M10.8401 127.471L11.0001 127.071C11.3501 126.211 12.1101 125.711 12.7001 125.961L39.5601 136.891C39.6901 136.941 39.7401 137.141 39.6601 137.331L38.5201 140.141C38.4401 140.331 38.2701 140.441 38.1401 140.391L11.2801 129.441C10.6901 129.201 10.4901 128.311 10.8401 127.471Z" fill="#455A64"/>
<path d="M35.9301 96.5218L32.7001 107.212L34.3201 129.002L29.5501 129.602C29.5501 129.602 24.0901 111.062 24.6301 107.712C25.1701 104.362 27.4001 94.5918 27.4001 94.5918L35.9201 96.5318L35.9301 96.5218Z" fill="#FFBE9D"/>
<path d="M34.3001 128.842L36.5201 132.632L37.9001 136.182L35.8301 135.372C35.8301 135.372 34.9401 139.662 34.5801 139.772C34.2201 139.882 33.2201 139.532 33.3201 138.712C33.0201 139.002 32.6001 139.142 32.1901 139.082C31.5601 138.952 31.4101 138.542 31.4801 137.752C31.4801 137.752 30.7501 138.342 30.3101 137.982C30.0401 137.712 29.8901 137.342 29.9201 136.962C29.9201 136.962 28.9701 137.042 28.8301 136.552C28.6901 135.742 28.6701 134.922 28.7801 134.102C28.8901 133.562 29.3501 131.362 29.3501 131.362L29.5601 129.592L34.2901 128.852L34.3001 128.842Z" fill="#FFBE9D"/>
<path d="M33.78 136.24C33.61 136.63 33.49 137.04 33.45 137.46C33.34 137.87 33.29 138.29 33.31 138.72C33.48 138.33 33.6 137.92 33.64 137.5C33.75 137.09 33.8 136.67 33.78 136.24Z" fill="#EB996E"/>
<path d="M31.8401 135.752C31.6801 136.052 31.5801 136.382 31.5401 136.722C31.4401 137.052 31.4101 137.392 31.4401 137.732C31.6001 137.432 31.7001 137.102 31.7401 136.762C31.8401 136.432 31.8701 136.092 31.8401 135.752Z" fill="#EB996E"/>
<path d="M30.22 135.291C30.12 135.561 30.07 135.841 30.07 136.131C29.99 136.571 29.87 136.951 29.93 136.971C30.13 136.741 30.24 136.461 30.26 136.161C30.33 135.871 30.31 135.571 30.22 135.291Z" fill="#EB996E"/>
<path d="M35.9801 134.131C35.8101 134.511 35.6901 134.911 35.6301 135.321C35.5001 135.721 35.4201 136.131 35.4001 136.541C35.6101 136.181 35.7601 135.781 35.8201 135.371C35.9501 134.971 36.0101 134.551 35.9801 134.131Z" fill="#EB996E"/>
<path d="M24.37 114.901C24.37 114.541 22.88 109.461 23.33 106.831C23.78 104.201 29.2 86.4214 29.92 85.1514C30.49 84.2914 31.29 83.6214 32.23 83.1914C34.34 84.3314 35.9 86.2914 36.54 88.6014C37.63 92.5014 37.63 97.3914 37.63 97.3914L33.28 108.191L33.8 114.321L24.37 114.901Z" fill="#FEBE24"/>
<path d="M37.36 97.0409C37.36 97.0409 37.4 96.2409 37.36 94.9609C37.33 94.2209 37.26 93.4809 37.14 92.7409C36.86 90.9309 36.3 89.1709 35.49 87.5309C35.16 86.8609 34.79 86.2109 34.38 85.5809C33.68 84.5109 33.16 83.9109 33.19 83.8809C33.33 84.0009 33.47 84.1409 33.58 84.2809C33.91 84.6609 34.22 85.0509 34.5 85.4709C34.93 86.0909 35.32 86.7409 35.66 87.4109C36.5 89.0709 37.07 90.8509 37.33 92.6909C37.44 93.4409 37.49 94.2009 37.5 94.9509C37.5 95.4609 37.48 95.9709 37.42 96.4709C37.42 96.6609 37.39 96.8409 37.35 97.0209L37.36 97.0409Z" fill="#263238"/>
<path d="M37.0801 99.3008C36.9701 99.7608 36.8201 100.201 36.6401 100.631C36.3201 101.451 35.8501 102.561 35.3101 103.781L33.9101 106.891C33.7401 107.331 33.5401 107.761 33.3101 108.171C33.4201 107.711 33.5701 107.271 33.7501 106.841C34.0701 106.021 34.5401 104.911 35.0801 103.691L36.4801 100.581C36.6501 100.141 36.8501 99.7108 37.0801 99.3008Z" fill="#263238"/>
<path d="M33.5301 108.6C32.5701 108.09 31.5801 107.66 30.5501 107.3C29.5001 107.03 28.4301 106.84 27.3501 106.74C27.6701 106.67 27.9901 106.65 28.3201 106.69C29.1001 106.73 29.8701 106.86 30.6201 107.08C31.3701 107.3 32.0901 107.62 32.7601 108.03C33.0501 108.18 33.3101 108.37 33.5401 108.6H33.5301Z" fill="#263238"/>
<path d="M61.8702 139.182C61.8702 139.182 58.4102 142.292 54.0602 146.022C49.7102 149.752 46.1402 152.732 46.1002 152.682C46.0602 152.632 49.5602 149.572 53.9102 145.852C58.2702 142.122 61.8302 139.142 61.8702 139.192V139.182Z" fill="white"/>
<path d="M66.37 139.18C66.37 139.18 63.47 141.84 59.79 144.99C56.11 148.14 53.1 150.67 53.06 150.62C53.02 150.57 55.97 147.96 59.64 144.81C63.31 141.66 66.33 139.13 66.37 139.18Z" fill="white"/>
<path d="M72.99 145.41C72.99 145.41 72.99 145.32 72.96 145.13C72.93 144.94 72.93 144.66 72.91 144.3C72.91 144.12 72.91 143.91 72.87 143.69C72.83 143.47 72.8 143.22 72.76 142.96C72.72 142.7 72.68 142.41 72.63 142.11C72.58 141.81 72.48 141.5 72.4 141.16C71.99 139.53 71.34 137.97 70.47 136.53C69.33 134.62 67.83 132.95 66.06 131.6L65.31 131.04C65.04 130.87 64.77 130.71 64.49 130.54C64.21 130.37 63.94 130.19 63.64 130.05L62.75 129.61L62.31 129.39L61.83 129.22L60.85 128.87C60.52 128.76 60.17 128.69 59.83 128.59C59.48 128.49 59.13 128.41 58.78 128.35C58.06 128.22 57.32 128.13 56.59 128.1C56.22 128.1 55.84 128.05 55.46 128.06L54.32 128.12C54.12 128.12 53.93 128.12 53.74 128.16L53.16 128.25C52.77 128.32 52.38 128.36 51.99 128.44C51.21 128.62 50.43 128.84 49.68 129.12C48.91 129.4 48.15 129.73 47.42 130.11C47.05 130.31 46.7 130.55 46.34 130.75C46.16 130.87 45.98 130.96 45.81 131.09L45.3 131.48C43.87 132.5 42.63 133.74 41.61 135.17L41.21 135.7L40.86 136.27L40.51 136.84C40.39 137.03 40.28 137.23 40.19 137.43L39.6 138.65C39.44 139.09 39.28 139.51 39.13 139.94C37.94 143.49 37.94 147.33 39.13 150.87C39.29 151.31 39.45 151.73 39.6 152.15C39.75 152.57 39.99 152.97 40.19 153.37L40.34 153.67L40.52 153.96L40.87 154.53L41.22 155.1L41.62 155.63C42.14 156.33 42.7 157 43.31 157.62C43.93 158.22 44.59 158.78 45.28 159.29L45.79 159.67C45.96 159.8 46.15 159.89 46.33 160.01C46.69 160.22 47.04 160.45 47.41 160.65C48.14 161.03 48.9 161.37 49.67 161.64C50.42 161.92 51.2 162.14 51.98 162.32C52.37 162.4 52.76 162.44 53.15 162.51L53.73 162.6C53.93 162.63 54.12 162.62 54.31 162.64L55.45 162.7C55.83 162.7 56.21 162.67 56.58 162.66C57.32 162.63 58.05 162.54 58.77 162.41C59.13 162.35 59.48 162.27 59.82 162.17C60.16 162.08 60.51 162.01 60.84 161.9L61.82 161.54L62.3 161.37L62.74 161.15L63.63 160.71C63.93 160.57 64.2 160.38 64.48 160.22C64.76 160.06 65.03 159.9 65.3 159.72L66.05 159.16C67.82 157.82 69.32 156.15 70.46 154.23C71.34 152.8 72 151.25 72.42 149.63C72.5 149.29 72.61 148.99 72.65 148.68C72.69 148.37 72.74 148.09 72.78 147.83C72.82 147.57 72.87 147.32 72.89 147.1C72.91 146.88 72.92 146.66 72.93 146.49C72.96 146.14 72.97 145.86 72.98 145.66C72.98 145.47 73.01 145.38 73.01 145.38V145.66C73.01 145.85 73.01 146.13 72.98 146.49C72.98 146.67 72.98 146.88 72.95 147.1C72.95 147.32 72.89 147.57 72.85 147.83L72.73 148.68C72.67 149 72.6 149.32 72.51 149.64C72.12 151.29 71.48 152.86 70.6 154.31C69.46 156.24 67.95 157.94 66.16 159.3L65.41 159.87C65.14 160.04 64.86 160.21 64.59 160.38C64.32 160.55 64.04 160.74 63.74 160.88L62.83 161.32L62.39 161.54L61.9 161.72L60.91 162.08C60.58 162.2 60.23 162.27 59.88 162.36C59.53 162.47 59.18 162.55 58.82 162.6C58.09 162.74 57.35 162.83 56.6 162.86C56.22 162.86 55.84 162.91 55.46 162.91L54.3 162.85C54.11 162.85 53.91 162.85 53.71 162.81L53.12 162.72C52.73 162.65 52.33 162.61 51.94 162.53C51.15 162.35 50.37 162.13 49.6 161.85C48.81 161.57 48.05 161.24 47.31 160.85C46.94 160.65 46.59 160.41 46.22 160.2C46.04 160.08 45.85 159.99 45.67 159.86L45.17 159.47C44.47 158.95 43.8 158.39 43.18 157.78C42.56 157.14 41.98 156.46 41.46 155.75L41.05 155.21L40.7 154.63L40.35 154.05L40.17 153.76L40.02 153.45L39.41 152.21L38.93 150.91C37.72 147.31 37.72 143.42 38.93 139.82L39.41 138.53C39.61 138.12 39.81 137.7 40 137.29C40.1 137.08 40.21 136.88 40.33 136.69L40.68 136.11L41.03 135.53L41.43 134.99C41.96 134.28 42.53 133.6 43.15 132.96C43.78 132.35 44.44 131.79 45.14 131.27L45.66 130.88C45.83 130.76 46.02 130.64 46.2 130.53C46.57 130.32 46.92 130.09 47.29 129.88C48.03 129.49 48.8 129.16 49.58 128.88C50.34 128.6 51.12 128.37 51.92 128.2C52.31 128.12 52.71 128.08 53.1 128.01L53.69 127.92C53.89 127.9 54.08 127.9 54.28 127.88L55.44 127.82C55.82 127.82 56.2 127.86 56.58 127.87C57.32 127.9 58.07 127.99 58.8 128.13C59.16 128.19 59.51 128.27 59.86 128.37C60.21 128.46 60.56 128.54 60.89 128.65L61.88 129.01L62.36 129.19L62.8 129.41L63.69 129.85C63.98 130 64.27 130.17 64.55 130.35C64.83 130.52 65.1 130.68 65.37 130.86L66.12 131.43C67.91 132.79 69.41 134.48 70.56 136.42C71.43 137.87 72.08 139.45 72.47 141.09C72.55 141.43 72.66 141.74 72.69 142.05C72.72 142.36 72.77 142.64 72.81 142.9C72.85 143.16 72.89 143.41 72.91 143.63C72.93 143.85 72.91 144.07 72.94 144.24C72.94 144.6 72.94 144.87 72.97 145.07C73 145.27 73 145.35 73 145.35L72.99 145.41Z" fill="#263238"/>
<path d="M66.55 154.671C66.69 154.461 66.83 154.261 66.99 154.081C67.39 153.551 67.76 152.991 68.1 152.421C70.37 148.581 70.86 143.951 69.43 139.721C69.22 139.091 68.97 138.471 68.69 137.861C68.57 137.641 68.47 137.421 68.38 137.191C68.38 137.191 68.42 137.241 68.49 137.351C68.56 137.461 68.65 137.611 68.77 137.821C69.09 138.411 69.36 139.031 69.58 139.671C71.12 143.931 70.63 148.661 68.25 152.511C67.9 153.081 67.5 153.631 67.07 154.151C66.92 154.331 66.79 154.471 66.7 154.561C66.61 154.651 66.55 154.691 66.54 154.691L66.55 154.671Z" fill="#263238"/>
<path d="M65.6401 156.271C65.6701 156.331 65.5301 156.471 65.3301 156.581C65.1301 156.691 64.9401 156.741 64.9101 156.691C64.8801 156.641 65.0201 156.491 65.2201 156.381C65.4201 156.271 65.6101 156.221 65.6401 156.271Z" fill="#263238"/>
<path d="M42.7601 152.881C42.7201 152.821 42.6801 152.751 42.6501 152.671C42.5901 152.531 42.4901 152.331 42.3901 152.051C42.0901 151.281 41.8601 150.491 41.6801 149.681C40.4901 144.251 42.0301 138.581 45.7901 134.481C46.3401 133.871 46.9501 133.301 47.5901 132.791C47.8101 132.601 48.0001 132.481 48.1301 132.391C48.2601 132.301 48.3201 132.261 48.3301 132.271C48.3401 132.281 48.0901 132.491 47.6501 132.871C47.0301 133.411 46.4501 133.991 45.9101 134.601C42.2601 138.701 40.7601 144.291 41.8501 149.671C42.0101 150.471 42.2201 151.261 42.4901 152.031C42.6601 152.581 42.7801 152.881 42.7601 152.891V152.881Z" fill="white"/>
<path d="M53.06 131.14C52.39 131.35 51.68 131.41 50.99 131.31C51.31 131.17 51.66 131.1 52.01 131.11C52.36 131.04 52.71 131.05 53.06 131.14Z" fill="white"/>
<path d="M128.37 173.81C128.29 173.48 128.21 173.13 128.12 172.76C127.41 169.78 126.4 165.5 125.14 160.21C124.82 158.89 124.49 157.5 124.14 156.05C123.96 155.33 123.79 154.59 123.61 153.84C123.54 153.45 123.43 153.06 123.28 152.68C123.07 152.29 122.76 151.98 122.38 151.76C122 151.53 121.57 151.42 121.13 151.45C120.71 151.51 120.3 151.6 119.89 151.72L117.45 152.34L112.35 153.65L89.67 159.48C88.53 159.79 87.82 160.92 88.02 162.09C88.26 163.1 88.5 164.09 88.74 165.08L90.15 170.89L92.82 181.87C92.92 182.31 93.04 182.74 93.14 183.17C93.23 183.64 93.47 184.07 93.81 184.41C94.16 184.74 94.6 184.95 95.08 185.01C95.53 185.03 95.98 184.96 96.4 184.81L101.19 183.57L109.81 181.32L122.28 178.04L125.66 177.12L126.54 176.88L126.87 176.78C126.99 176.76 127.1 176.73 127.21 176.68C127.5 176.56 127.75 176.38 127.96 176.15C128.29 175.76 128.49 175.27 128.5 174.76C128.5 174.44 128.45 174.12 128.36 173.81H128.37ZM110.29 170.86L106.64 174.48L105.42 169.38L104.21 164.29L109.07 165.76L113.94 167.23L110.29 170.86Z" fill="#FEBE24"/>
<path d="M188.53 114.28V123.73C188.53 124.05 188.71 124.34 188.99 124.49L194.32 127.28C194.74 127.5 195.26 127.34 195.48 126.92C195.54 126.8 195.58 126.66 195.58 126.52V110.43C195.58 109.96 195.2 109.57 194.72 109.57C194.54 109.57 194.37 109.63 194.22 109.73L188.89 113.59C188.66 113.75 188.53 114 188.53 114.28Z" fill="#263238"/>
<path d="M200.61 128.12C200.06 128.12 199.61 127.67 199.61 127.12C199.61 126.77 199.8 126.44 200.1 126.26C204.38 123.73 205.8 118.21 203.27 113.93C202.77 113.08 202.13 112.32 201.38 111.68C200.95 111.33 200.89 110.7 201.24 110.27C201.59 109.84 202.22 109.78 202.65 110.13C202.67 110.14 202.68 110.16 202.7 110.17C207.3 114.13 207.82 121.08 203.86 125.68C203.08 126.59 202.16 127.36 201.13 127.97C200.98 128.07 200.8 128.12 200.62 128.12H200.61Z" fill="#263238"/>
<path d="M197.63 125.2C197.08 125.2 196.63 124.75 196.64 124.19C196.64 123.85 196.82 123.53 197.11 123.35C199.54 121.9 200.34 118.75 198.88 116.32C198.6 115.85 198.25 115.43 197.84 115.07C197.41 114.72 197.35 114.09 197.7 113.66C198.05 113.23 198.68 113.17 199.11 113.52C199.13 113.53 199.14 113.55 199.16 113.56C202.14 116.14 202.46 120.64 199.88 123.62C199.39 124.19 198.81 124.67 198.16 125.06C198 125.15 197.82 125.2 197.64 125.2H197.63Z" fill="#263238"/>
<path d="M203.87 130.821C203.52 130.821 203.19 130.631 203.01 130.331C202.73 129.861 202.88 129.251 203.35 128.961C209.22 125.471 211.15 117.881 207.66 112.011C206.98 110.871 206.12 109.841 205.12 108.971C204.71 108.601 204.69 107.961 205.06 107.561C205.42 107.171 206.02 107.131 206.43 107.461C212.44 112.651 213.1 121.731 207.91 127.741C206.91 128.891 205.74 129.881 204.43 130.671C204.26 130.771 204.07 130.821 203.87 130.821Z" fill="#263238"/>
<path d="M186.32 113.84H183.79C183.21 113.84 182.74 114.31 182.74 114.89V123.15C182.74 123.73 183.21 124.2 183.79 124.2H186.32C186.9 124.2 187.37 123.73 187.37 123.15V114.89C187.37 114.31 186.9 113.84 186.32 113.84Z" fill="#263238"/>
</g>
</g>
<defs>
<clipPath id="clip0_2370_65813">
<rect width="220" height="200" fill="white" transform="translate(0.5 0.5)"/>
</clipPath>
<clipPath id="clip1_2370_65813">
<rect width="220" height="200" fill="white" transform="translate(0.5 0.5)"/>
</clipPath>
</defs>
</svg>
