<svg width="32" height="32" viewBox="0 0 32 32" fill="none" xmlns="http://www.w3.org/2000/svg">
  <circle cx="16" cy="16" r="16" fill="#3865f5"/>
  <!-- Primera forma de lágrima (arriba) -->
  <path d="M16 6C14.5 6 13 6.5 12 7.5C11 8.5 10.5 10 10.5 11.5C10.5 13 11 14.5 12 15.5C13 16.5 14 17.5 15 18.5C15.5 19 16 19.5 16 20C16 19.5 16.5 19 17 18.5C18 17.5 19 16.5 20 15.5C21 14.5 21.5 13 21.5 11.5C21.5 10 21 8.5 20 7.5C19 6.5 17.5 6 16 6Z" fill="white" opacity="0.95"/>
  <!-- Segunda forma de lágrima (rotada 120° - abajo derecha) -->
  <path d="M16 6C14.5 6 13 6.5 12 7.5C11 8.5 10.5 10 10.5 11.5C10.5 13 11 14.5 12 15.5C13 16.5 14 17.5 15 18.5C15.5 19 16 19.5 16 20C16 19.5 16.5 19 17 18.5C18 17.5 19 16.5 20 15.5C21 14.5 21.5 13 21.5 11.5C21.5 10 21 8.5 20 7.5C19 6.5 17.5 6 16 6Z" fill="white" opacity="0.95" transform="rotate(120 16 16)"/>
  <!-- Tercera forma de lágrima (rotada 240° - abajo izquierda) -->
  <path d="M16 6C14.5 6 13 6.5 12 7.5C11 8.5 10.5 10 10.5 11.5C10.5 13 11 14.5 12 15.5C13 16.5 14 17.5 15 18.5C15.5 19 16 19.5 16 20C16 19.5 16.5 19 17 18.5C18 17.5 19 16.5 20 15.5C21 14.5 21.5 13 21.5 11.5C21.5 10 21 8.5 20 7.5C19 6.5 17.5 6 16 6Z" fill="white" opacity="0.95" transform="rotate(240 16 16)"/>
</svg>

