<svg width="40" height="40" viewBox="0 0 40 40" fill="none" xmlns="http://www.w3.org/2000/svg">
  <circle cx="20" cy="20" r="20" fill="#3865f5"/>
  <!-- Primera forma de lágrima (arriba) -->
  <path d="M20 8C18.5 8 17 8.5 16 9.5C15 10.5 14.5 12 14.5 13.5C14.5 15 15 16.5 16 17.5C17 18.5 18 19.5 19 20.5C19.5 21 20 21.5 20 22C20 21.5 20.5 21 21 20.5C22 19.5 23 18.5 24 17.5C25 16.5 25.5 15 25.5 13.5C25.5 12 25 10.5 24 9.5C23 8.5 21.5 8 20 8Z" fill="white" opacity="0.95"/>
  <!-- Segunda forma de lágrima (rotada 120° - abajo derecha) -->
  <path d="M20 8C18.5 8 17 8.5 16 9.5C15 10.5 14.5 12 14.5 13.5C14.5 15 15 16.5 16 17.5C17 18.5 18 19.5 19 20.5C19.5 21 20 21.5 20 22C20 21.5 20.5 21 21 20.5C22 19.5 23 18.5 24 17.5C25 16.5 25.5 15 25.5 13.5C25.5 12 25 10.5 24 9.5C23 8.5 21.5 8 20 8Z" fill="white" opacity="0.95" transform="rotate(120 20 20)"/>
  <!-- Tercera forma de lágrima (rotada 240° - abajo izquierda) -->
  <path d="M20 8C18.5 8 17 8.5 16 9.5C15 10.5 14.5 12 14.5 13.5C14.5 15 15 16.5 16 17.5C17 18.5 18 19.5 19 20.5C19.5 21 20 21.5 20 22C20 21.5 20.5 21 21 20.5C22 19.5 23 18.5 24 17.5C25 16.5 25.5 15 25.5 13.5C25.5 12 25 10.5 24 9.5C23 8.5 21.5 8 20 8Z" fill="white" opacity="0.95" transform="rotate(240 20 20)"/>
</svg>

